<?xml version="1.0" encoding="utf-8"?>
<!-- Generator: Adobe Illustrator 18.1.1, SVG Export Plug-In . SVG Version: 6.00 Build 0)  -->
<svg version="1.1" id="Layer_1" xmlns="http://www.w3.org/2000/svg" xmlns:xlink="http://www.w3.org/1999/xlink" x="0px" y="0px"
	 viewBox="0 0 223.1 222.9" enable-background="new 0 0 223.1 222.9" xml:space="preserve">
<g>
	<radialGradient id="SVGID_1_" cx="113.6473" cy="108.6891" r="103.9499" gradientUnits="userSpaceOnUse">
		<stop  offset="0" style="stop-color:#AA740D"/>
		<stop  offset="0.5222" style="stop-color:#A77006"/>
		<stop  offset="1" style="stop-color:#713F00"/>
	</radialGradient>
	<path fill-rule="evenodd" clip-rule="evenodd" fill="url(#SVGID_1_)" d="M137.7,49c0.5,1.2-0.2,5.3-1.1,5.5
		C134.3,53.6,134.6,49.6,137.7,49L137.7,49z M130,60.5l6.3-0.3l-2-3.4L130,60.5L130,60.5z M156.3,35.8c-3.3-0.4-10.6,1.5-9.1,2.8
		c0.6,0.5,4.3,0.9,5.4,1.1c-1.1,1-7.2-0.2-8.8-1c2.3-1.4,4.9-2.6,6.5-5.6c5.6,0.3,10.4,2,8.6,4.5C158.6,36.9,157.8,36,156.3,35.8
		L156.3,35.8z M148,32.4c0.4,0,0.7,0,1.1,0.4c-0.8,1-4.2,4.8-5.5,4.2C144.5,36.2,147.7,33.7,148,32.4L148,32.4z M135.9,39.7
		c4.5-2.2,2.2,1.4,5.8-1.1c-0.3,1.5-0.1,3.9-1.1,5.4c-3.3-3.9-0.6-3.3-4.6-1.6C136,41.6,135.9,40.5,135.9,39.7L135.9,39.7z
		 M140.7,29.2l0.6,1.3c0.8,0.6,1.3,0.2,2.1,0.7C141.9,33.4,138.8,30.9,140.7,29.2L140.7,29.2z M140.2,50.8c-1.5-1.4-0.7-4.4-0.8-5
		C139.8,44.3,142.3,45.6,140.2,50.8L140.2,50.8z M140.9,55.8c-0.3,4.6-2.7,2.6-3.6,0c0.9-0.3,2.3-1,3.1-1.8L140.9,55.8L140.9,55.8z
		 M142.5,35c-0.8,0-1.3,2.8-2.7,2.1l0.3-1.9c-1.2,0.8-2.9,2.9-4.4,2.3c0.7-1.5,2.8-3.9,4.5-3.9c0.1,0,2.5,1,3.5,0.5
		c1.9-0.9,1.3-3.3,2.3-2.4C146.2,33.6,144.6,34.9,142.5,35L142.5,35z M133.6,50.8c-0.5,7.4-13.9,9.7-14.4,6.1
		C123.2,58.1,130.7,53.7,133.6,50.8L133.6,50.8z M143.5,55.5c0.2,1.7,5.6,4.2,7,2.3C149.7,58.9,145.4,57.3,143.5,55.5L143.5,55.5z
		 M133.4,41.6c0.6-0.5,1.1,1.1,0.6,2.3c-1.4,3.4-11.9,10.2-14.7,5.1C124.4,49,130.1,47.1,133.4,41.6L133.4,41.6z M137.5,43.5
		c0.6-1.3,0.9,4.9-4,5.4C132.3,48.1,136,45.3,137.5,43.5L137.5,43.5z M123.3,40.5c1.6,0,11.3,0.9,9.6-5c-4,0.7-8.2,1.3-9.1-1.3
		c4.5,1.5,9.9,0.1,11.6-1.7c-1.8,0-5-3.2-3-6.4c0.6,2.1,2.5,5,4.8,5.5c-0.6-1.5-2.2-5-1.4-5.6c1.2,1.1,1.9,1.3,2.7,2.3
		c-0.2,0.2-0.5,3.1,0,4.2c-1.6,0.6-3,1.5-4,2.8c-0.1,1.3-0.5,1.8-0.3,3.3C132.9,41.2,125.2,43.1,123.3,40.5L123.3,40.5z M118.9,38.5
		c3.6,0.5,6.9,0.5,10.3,0c-5.1,0-7.7-1.3-7.6-5.4c3.6,0.6,7.1,0.2,9.7-1c-2.6-2.7-1.9-5.4,0-8.2l2.7,2.5c-0.1-1.1,0.2-1.9,0.8-2.6
		c0.8-0.1,2.3,0.8,4.7,2.8c0.6-1.4,1.5-2.2,3.1-2.6c1.2,2.7,2.9,5,5.6,6.5c3.7,1.3,10.8,1.1,11.9,3.9c1.6,4,0.3,5.6-2.3,6.6
		c1.6-3.4-4.1-5.2-5.5-3l3.3,0.6c0.9,0.1-0.4,2.9-2.7,2.9c-1.3,0-8.8,0.2-8.8-0.2c0-0.5-1.4,5.8-0.2,9.7c1.2,3.9,7.4,7.1,9.5,3.6
		c1.4,1.6-1.5,5.5-4.8,5.3c-2.3,0.7-6.7-1.7-6.1-2.8c0.2,0.2-1.1,3.3-2.2,3.5c-0.9,0.7-5-3.7-5.5-6.1c-0.9,2-7,6.6-11.2,5.8
		c-2.3,0-7-1-7.4-6.1c0.7,2.6,13.3-0.1,13.9-4.3c-2.6,2.6-5.7,2.5-7.3,2.6c-3.8,0.9-7.4-4.5-4.9-6.1c-0.1,2.6,11-0.2,11-2.9
		C124.6,44.6,121,43.1,118.9,38.5L118.9,38.5z M90.6,50.5c-0.5,0.2-1.1,0.8-1.8,0.3c-0.4-0.9-0.2-2.8,0.1-2.8c0.1,0,1.2-0.8,1.6-0.3
		C90.7,48.1,90.6,49.9,90.6,50.5L90.6,50.5z M92.9,45.5c-2.1,0.8-2.1,1.9-1.4,3.8c0.7,0.7,2,0.1,2.7-0.8
		C94.2,46.2,93.7,45.7,92.9,45.5L92.9,45.5z M96,42.6c-1,0.5-1.3,1.2-1.3,1.8c0,0.8,0.3,1.6,0.6,2.8c0.5,0.4,0.9,0.4,1.3,0
		c0.5-0.3,0.9-1.1,1.3-1.8c-0.1-0.6-0.2-1.2-0.4-1.8c-0.1-0.5-0.2-1-0.2-1c0-0.1-0.2-0.2-0.6-0.1C96.4,42.5,96.1,42.6,96,42.6
		L96,42.6z M93.9,38.7c-1.6,2.4-0.4,2.4,0.2,4.3c0.8,0.7,2.1-1.2,2.8-2.1c-0.4-1.5-0.8-2.2-1.6-3.1C95.4,37.8,94.3,37.9,93.9,38.7
		L93.9,38.7z M92.7,41.2c-2.1,0.8-2.1,1.9-1.4,3.8c0.7,0.8,1.8,0.3,2.5-0.7C93.4,42.1,93.2,41.6,92.7,41.2L92.7,41.2z M89.9,43.3
		c-2.1,0.8-2.3,1.8-1.6,3.7c0.7,0.8,1.5,0.5,2.3-0.9C90.6,43.9,90.3,43.6,89.9,43.3L89.9,43.3z M64.3,34.1c-4.6,2.4-3.4,8.6,2,7.8
		L65.2,40c0.1-1,1.3-2.1,2.4-2c-0.4-1.8,0-3.7,0.9-5.8C67.7,32.2,65.1,33.6,64.3,34.1L64.3,34.1z M64.7,35.8
		c0.5-0.3,1.4-0.7,1.8-0.9c-0.4,2.8-1.7,3.2-2.7,4.4C63.1,38.5,63.8,36.6,64.7,35.8L64.7,35.8z M74.7,36.9c-0.8-1.6-3.6-0.3-4-0.8
		c-0.2-0.3,0-2.9,3.1-4c0.8,4,3.1,5,3.6,7.3c-0.7,2.1-0.7,2.5-4.8,1.6c0.3,0,1.6-0.6,1.9-0.7C74.9,39.2,75,37.9,74.7,36.9L74.7,36.9
		z M66.8,41.8c4.9,0.9,10.1,2.7,11.3,0.9c3.9-3.7-1.9-6.4-2.9-13c-2.7,0.6-5.1,2.7-6.1,4.7c-0.3,1.3-0.4,2.5-0.1,3.5
		c1.1,0,3.4-0.3,4,0.4C71.9,39.5,68.3,40,66.8,41.8L66.8,41.8z M84.3,31.7c-0.8-1-3-0.3-3,0.7C81.2,38.3,87.5,33.7,84.3,31.7
		L84.3,31.7z M88.3,37.8c-0.8,0.8-2.9,3.1-3.4,4.4c1.2,4.1,0.9,7.7,1,9.9L84.3,52c0-2.2,0.1-5.6-0.7-7.4c-0.9-0.2-2-1.2-1.6-2.1
		c2.5-4.1-3.6-7.7-3.9-13.3c0.7-0.1,1.8,0,3.3,0c0.9-0.6,1.9-1.1,2.4-2c1.6-0.4,4.4,1.3,3,2.7C89.1,32.4,92.1,34.4,88.3,37.8
		L88.3,37.8z M87.6,52.4c0.7-5-1-8.2-0.6-9.7c0.4-0.4,1.9-4.1,3.3-0.3c0.7-0.6,1.3-1.4,2-2.2c-0.5-0.7-0.9-1.2-1.4-1.9
		c0.6-0.4,1.2,0.4,1.7,0.7c0.7,0.5,1.8-2.3,1.8-2.4c0-1.7-3.5-4-4.7-6.1c-0.4-0.6-0.3-1.3-0.2-2.1c-0.4-1.5-4.8-4.2-6.7-3.2
		c-3.3,3.8-5.3-0.1-6.5,2.9c-0.2,4.7,3.2,8.3,4.4,12c0,0.8-1.3,2.8-1.3,3.6c0.7,1.2,2.5,1.6,2.8,2.4c0.1,2,0.1,3.7,0.1,6.1
		c0,1.3,0.7,2.1,1.4,2.1h3.2C87.4,54.1,87.6,53.5,87.6,52.4L87.6,52.4z M92.8,49.9c-2.2,0.7-1.7,2.1-1.1,4.1
		c0.7,0.7,2.8-0.4,3.5-1.3c0-1.3-0.3-2.9-0.4-2.9C94.9,49.7,93.2,49.9,92.8,49.9L92.8,49.9z M90.4,54.5c-0.6,0.2-1.3,0.8-2.2,0.3
		C87.8,54,87.9,52,88.4,52c0.1,0,1.5-0.8,1.9-0.3C90.7,52.1,90.6,54,90.4,54.5L90.4,54.5z M95.3,60.6c-0.5,0-3.4,0.5-4-0.1
		c-0.5-0.9,0-4.7,0-5.3c0.4-0.1,1.1-0.6,1.7-0.4C94.1,56.1,95.3,60.2,95.3,60.6L95.3,60.6z M92.5,59.1c0.3-0.9-0.5-1.9-0.1-2.6
		c0,0.4,1.4,2.1,1,3.4C92.7,59.9,92.6,59.4,92.5,59.1L92.5,59.1z M84.8,60.3l2.7-5l2.9,0c0.1,1.4,0.2,4.2-0.4,5.4
		C88.5,61.3,84.7,61,84.8,60.3L84.8,60.3z M87.2,59.1c0.4-0.7,0.9-1.5,1.4-2.4c0.4-0.6,0,1.1-0.1,2.8C87.1,59.5,87.3,59.4,87.2,59.1
		L87.2,59.1z M83.6,60.4c-0.6,0.5-4.6,0.5-5.1,0.1c0.5-0.8,3.3-3.9,5-5.5c1.3-0.1,2.9,0.2,3.1,0.5C86.5,56.4,84,60.1,83.6,60.4
		L83.6,60.4z M81.5,59.2c0.8-1.1,1.3-2.1,2.5-2.9c0.7,0,0.4,1.2-0.9,3C81.7,59.4,81.6,59.5,81.5,59.2L81.5,59.2z M76.8,60.5
		c-1.3,0-4.2-0.2-5.7-1.3c2.2-1.6,8.1-5.6,9-5.8c0.9-0.5,2.1,0.8,2.5,1.4C82.4,55.5,77.9,59.9,76.8,60.5L76.8,60.5z M75.2,58.6
		c1.5-1.5,3.2-2.7,4.8-3.4c0.5,0.8-2.1,2.6-3.3,3.6C75.7,58.9,75.3,58.8,75.2,58.6L75.2,58.6z M100.9,60.5c-0.6-0.7-3.7-5.9-4.2-7.5
		c0-1.1,2.3-1.4,2.8-1.8c1.2,0.9,4.8,7,4.9,8.5C103.3,60.3,102.2,60.7,100.9,60.5L100.9,60.5z M99.4,55.6c-0.1-0.8-1.2-2.2-0.8-2.9
		c0.7-0.3,2.9,4.3,3.4,6.5C101,60.8,100.5,56.9,99.4,55.6L99.4,55.6z M97,47.4c-2.1,0.8-1.5,2-0.8,3.9c0.7,0.7,1.5,0,2.4-0.9
		c0-0.8-0.2-2.7-0.2-2.7C98.3,47.3,97.3,47.4,97,47.4L97,47.4z M99.8,60.2c-0.5,0.9-2.3,0.7-3.3,0.3c-0.8-1.2-2.4-4.7-2.5-6
		c0.7-0.6,1.3-0.9,2-1.1C97.4,55.7,98.7,58,99.8,60.2L99.8,60.2z M96.2,58c-0.1-0.8-1-2.4-0.5-3c0,0.4,2.5,3.4,2.1,4.8
		C96.8,60.2,96.3,58.2,96.2,58L96.2,58z M117.9,6.2l1.8,0l1.1,12.3l-1.4,0l-0.2-3.1h-1.5l-0.5,3.1l-1.4,0L117.9,6.2L117.9,6.2z
		 M119,13.5l-0.2-4.1l0-2h0l-0.2,2l-0.6,4.1H119L119,13.5z M121.2,6.3l1.3,0l-0.1,8.6c0,0.8,0,1.4,0.2,1.7c0.2,0.2,0.5,0.4,0.7,0.4
		c0.2,0,0.4,0,0.5-0.1c0.1-0.1,0.2-0.3,0.3-0.6c0.1-0.3,0.2-0.8,0.2-1.3l0.2-8.6h1.3l-0.2,8.8c0,1.3-0.2,2.3-0.6,2.9
		c-0.3,0.6-1,0.8-1.8,0.8c-0.8,0-1.4-0.3-1.8-0.9c-0.3-0.6-0.5-1.5-0.5-2.9L121.2,6.3L121.2,6.3z M130.5,8.5L129,8.4l-0.4,10.3
		l-1.3,0l0.4-10.3l-1.5-0.1l0.1-1.9l4.3,0.2L130.5,8.5L130.5,8.5z M134.9,13.8c0,1.2-0.2,2.1-0.3,2.8c-0.1,0.7-0.3,1.3-0.6,1.8
		c-0.3,0.5-0.9,0.7-1.5,0.6c-1,0-1.6-0.5-1.8-1.4c-0.2-0.9-0.4-2.1-0.3-3.8v-0.2l0-1.5V12c0,0,0-0.1,0-0.2c0-0.2,0-0.5,0-0.8
		c0-0.3,0.1-0.7,0.1-1.3c0.1-0.6,0.1-1,0.2-1.4c0-0.4,0.2-0.7,0.2-0.9c0.3-0.6,0.6-0.9,0.8-1.1c0.3-0.1,0.6-0.2,1-0.2
		c0.7,0,1.1,0.4,1.4,0.9c0.3,0.6,0.5,1.3,0.6,2.1c0.1,0.8,0.1,1.8,0,2.7L134.9,13.8L134.9,13.8z M131.8,10.4l-0.2,4.4
		c0,1.5,0.3,2.3,0.9,2.3c0.6,0,0.9-0.7,1-2.3l0.1-4.2c0-0.5,0-1.1-0.1-1.6c-0.1-0.6-0.3-0.9-0.7-0.9c-0.3,0-0.6,0.2-0.7,0.6
		C131.9,9.1,131.8,9.7,131.8,10.4L131.8,10.4z M136.2,6.7l1.4,0.1l0.9,6l0.4,3.6c0-2,0.1-3.4,0.1-4.2c0-0.8,0.1-1.8,0.1-2.6l0.2-2.7
		l1.3,0.1l-0.9,12.3l-1.3-0.1l-1-6.1l-0.3-3.3c-0.1,1.2-0.1,2.3-0.1,3.5c0,1.1-0.1,2-0.1,2.7l-0.2,3.1l-1.3-0.1L136.2,6.7L136.2,6.7
		z M145.6,14.9c-0.1,1.2-0.3,2.1-0.5,2.8c-0.2,0.7-0.4,1.2-0.8,1.7c-0.4,0.4-0.9,0.6-1.5,0.5c-1-0.1-1.5-0.6-1.7-1.5
		c-0.1-0.9-0.1-2.2,0-3.8l0-0.3l0.2-1.5v-0.1c0,0,0-0.1,0-0.2c0-0.2,0-0.5,0.1-0.8c0-0.3,0.1-0.8,0.2-1.3c0.1-0.5,0.2-1,0.3-1.4
		c0.1-0.4,0.2-0.7,0.3-0.9c0.3-0.5,0.6-0.9,0.9-1c0.2-0.1,0.6-0.2,0.9-0.2c0.6,0.1,1.1,0.4,1.4,1.1c0.2,0.6,0.4,1.4,0.4,2.1
		c0,0.8,0,1.8-0.1,2.7L145.6,14.9L145.6,14.9z M142.8,11.3l-0.5,4.4c-0.2,1.5,0.1,2.3,0.7,2.4c0.6,0.1,1-0.7,1.1-2.2l0.5-4.2
		c0.1-0.5,0.1-1.1,0-1.6c0-0.6-0.2-0.9-0.6-1c-0.3,0-0.6,0.2-0.8,0.6C143.1,10,142.9,10.5,142.8,11.3L142.8,11.3z M147.5,7.7l2,0.3
		v6.4l-0.1,2.1l0.4-2.1l1.5-6.3l2,0.2l-1.5,12.2l-1.2-0.1l0.8-7l0.6-4.2l0,0l-2.7,11l-0.8-0.1l0-11.3l0,0l-0.5,4.6l-0.8,6.6
		l-1.3-0.1L147.5,7.7L147.5,7.7z M156.8,8.8l1.8,0.2L158,21.3l-1.4-0.2l0.1-3.1l-1.5-0.2l-0.9,3l-1.4-0.1L156.8,8.8L156.8,8.8z
		 M156.9,16.2l0.2-4.1l0.2-1.9h0l-0.5,1.9l-1.1,4L156.9,16.2L156.9,16.2z M165.9,9.8c2.5,0.1,4.6,0.8,3.9,2.9l-1.3,8.3
		c-0.2,1.6-2.6,1.5-4.7,0.7L165.9,9.8L165.9,9.8z M167,11.2c0.9,0,1.6,0.3,1.4,1.1l-1.2,7.8c-0.2,0.8-0.9,1-1.9,0.7
		c0,0,0.7-3.9,0.8-3.9c-0.1,0,0.9,0.1,0.9,0.1l0.3-1.5l-0.9-0.2L167,11.2L167,11.2z M176.6,11.9l2.1,0.3l-0.2,6.4l-0.2,2.2l0.5-2.1
		l1.8-6.2l2.1,0.3L180.7,25l-1.3-0.2l1.1-6.9l0.7-4.2l0,0l-3.2,10.9l-0.8-0.1l0.2-11.3l0,0l-0.6,4.6l-1,6.5l-1.3-0.2L176.6,11.9
		L176.6,11.9z M183.8,13l3.6,0.6l-0.3,1.9l-2.3-0.4l-0.5,3l2.1,0.4l-0.3,1.7l-2.1-0.3l-0.6,3.9l2.3,0.4l-0.3,1.7l-3.6-0.6L183.8,13
		L183.8,13z M188.5,20.1L188.5,20.1l-0.2-6.3l1.3,0.3l0,3.3c0,0.4-0.1,0.9-0.1,1.2l0,0c0.1-0.3,0.3-0.7,0.4-1l1.4-3l1.3,0.3
		l-2.9,5.6l0.2,6.4l-1.4-0.3v-3.3c0-0.5,0-1,0.1-1.4c-0.1,0.4-0.3,0.8-0.5,1.3l-1.4,3l-1.3-0.3L188.5,20.1L188.5,20.1z M193.5,15
		l1.3,0.4l-3.1,11.9l-1.4-0.3L193.5,15L193.5,15z M197.6,20.1c0.4-1.4,0.4-2.2-0.1-2.4c-0.6-0.2-1.1,0.4-1.5,1.9l-1.2,4
		c-0.2,0.9-0.4,1.6-0.4,2c0.1,0.4,0.2,0.7,0.5,0.8c0.3,0.1,0.6-0.1,0.8-0.4c0.2-0.4,0.5-1.1,0.8-2.1l1.3,0.4
		c-0.2,0.8-0.5,1.5-0.7,2.1c-0.2,0.6-0.6,1.1-1,1.5c-0.5,0.5-1,0.5-1.6,0.4c-0.6-0.2-1-0.4-1.3-0.9c-0.3-0.4-0.4-1-0.3-1.8
		c0-0.7,0.2-1.8,0.6-2.9l0.6-2c0.4-1.3,0.8-2.4,1.1-3.1c0.3-0.7,0.8-1.2,1.2-1.5c0.5-0.3,1-0.4,1.5-0.2c0.8,0.2,1.2,0.7,1.4,1.5
		c0.1,0.8,0,1.9-0.4,3.2L197.6,20.1L197.6,20.1z M202.9,24.8c-0.3,1.1-0.7,2-0.9,2.7c-0.3,0.7-0.7,1.1-1.1,1.5
		c-0.5,0.4-1,0.5-1.6,0.3c-0.9-0.3-1.4-0.9-1.4-1.8c0-0.9,0.2-2.2,0.7-3.7l0.1-0.2l0.4-1.5l0,0c0,0,0-0.1,0.1-0.2
		c0-0.2,0.1-0.5,0.2-0.8c0.1-0.3,0.3-0.7,0.4-1.2c0.2-0.5,0.4-0.9,0.6-1.3c0.1-0.4,0.3-0.7,0.5-0.8c0.4-0.5,0.8-0.8,1.1-0.8
		c0.3-0.1,0.7-0.1,1,0c0.6,0.2,1,0.6,1.2,1.2c0.1,0.7,0.1,1.4,0,2.2c-0.2,0.8-0.4,1.7-0.7,2.7L202.9,24.8L202.9,24.8z M200.8,20.8
		l-1.3,4.2c-0.5,1.5-0.4,2.3,0.2,2.5c0.6,0.1,1.1-0.5,1.5-2l1.2-4.1c0.2-0.6,0.3-1.1,0.3-1.6c0.1-0.6,0-1-0.4-1.1
		c-0.3-0.1-0.6,0-0.8,0.4C201.4,19.5,201.1,20,200.8,20.8L200.8,20.8z M19.1,19.5l1.3-0.5l3,8c0.3,0.8,0.6,1.3,0.8,1.5
		c0.2,0.2,0.6,0.2,0.8,0.1c0.2-0.1,0.4-0.2,0.5-0.3c0.1-0.1,0.1-0.4,0.1-0.7c0-0.3-0.1-0.8-0.3-1.3l-3-8l1.3-0.5l3.1,8.2
		c0.5,1.2,0.7,2.2,0.5,2.9c-0.1,0.7-0.6,1.2-1.4,1.5c-0.8,0.2-1.5,0.2-2-0.1c-0.6-0.4-1.1-1.3-1.5-2.6L19.1,19.5L19.1,19.5z
		 M24.8,17.4l1.3-0.4l3.1,5.3l1.7,3.2c-0.7-1.8-1.2-3.2-1.4-3.9c-0.3-0.8-0.5-1.7-0.8-2.5l-0.8-2.6l1.2-0.4l3.7,11.7l-1.3,0.4
		L28.3,23l-1.6-2.9c0.4,1.1,0.8,2.2,1.2,3.2c0.4,1,0.7,1.9,0.9,2.6l0.9,2.9l-1.3,0.4L24.8,17.4L24.8,17.4z M30.1,15.8l1.4-0.4
		l3.5,11.8l-1.4,0.4L30.1,15.8L30.1,15.8z M37.6,13.9l3.6-0.7l0.4,1.8l-2.3,0.5l0.6,3l2.1-0.5l0.4,1.7l-2.1,0.4L41,24l2.3-0.5
		l0.3,1.7L40.1,26L37.6,13.9L37.6,13.9z M37.3,25.4L37,23.3l-1.4-9l1.4-0.3l1.4,12.3l-1.7,0.4l-4.3-11.6l1.3-0.3l3,8.5L37.3,25.4
		L37.3,25.4z M42,13l2.3-0.5c1.1-0.2,1.9,0.6,2.2,2.4c0.2,0.9,0.2,1.6,0.1,2.2c-0.1,0.6-0.3,1-0.6,1.1c0.2-0.1,0.5,0,0.6,0.2
		c0.1,0.1,0.3,0.4,0.4,0.7c0.1,0.2,0.2,0.5,0.2,0.8c0.1,0.3,0.1,0.7,0.2,0.9c0.1,0.8,0.3,1.6,0.5,2.2c0.2,0.7,0.3,1,0.4,1l0.1,0.2
		L47,24.6c-0.1-0.2-0.2-0.7-0.3-1.3c-0.1-0.6-0.2-1-0.3-1.4l-0.1-0.8c-0.1-0.6-0.2-1-0.4-1.3c-0.2-0.3-0.5-0.4-0.9-0.3l-0.6,0.1
		l0.9,5.3l-1.2,0.3L42,13L42,13z M44.4,14.4l-0.8,0.2l0.6,3.3l0.8-0.1c0.2-0.1,0.4-0.3,0.5-0.6c0.1-0.3,0.1-0.7,0-1.2
		c-0.1-0.6-0.2-1-0.4-1.2C44.9,14.4,44.6,14.3,44.4,14.4L44.4,14.4L44.4,14.4z M49.8,15.4c-0.2-1.4-0.7-2.1-1.2-2
		c-0.2,0-0.4,0.2-0.4,0.4c-0.1,0.2-0.1,0.6-0.1,0.9c0.1,0.5,0.4,1,0.7,1.3c0.4,0.3,0.8,0.7,1.3,1c0.5,0.3,0.8,0.8,1.2,1.2
		c0.3,0.4,0.6,1,0.8,1.5c0.3,1.3,0.4,2.4,0.1,3.1C52,23.6,51.6,24,51,24.2c-0.7,0.2-1.3,0.1-1.9-0.4c-0.5-0.4-0.9-1.4-1.2-2.9
		c-0.1-0.3-0.1-0.7-0.1-0.8l1.3-0.2c0,0.1,0.1,0.2,0.1,0.2c0,0.1,0,0.1,0,0.2c0,0.1,0,0.2,0,0.3c0.2,1.4,0.7,2,1.2,1.9
		c0.1,0,0.3-0.1,0.4-0.1c0.1-0.1,0.2-0.3,0.2-0.5c0-0.3,0-0.6,0-0.9c-0.1-0.7-0.5-1.2-1-1.6c-0.4-0.3-0.7-0.6-1-0.8
		c-0.3-0.3-0.7-0.6-0.9-0.9c-0.2-0.3-0.5-0.6-0.7-1c-0.2-0.5-0.4-1-0.5-1.6c-0.3-1.9,0.1-3,1.3-3.3c1.5-0.4,2.5,0.7,2.9,3.2l0.1,0.3
		L49.8,15.4L49.8,15.4z M51.4,11.6l1.4-0.2l2,12.1l-1.4,0.2L51.4,11.6L51.4,11.6z M53.7,11.2l2.6-0.3c0.7-0.1,1.3,0.3,1.8,1.2
		c0.5,0.9,0.8,2.5,1.1,4.8c0.1,1,0.2,1.8,0.2,2.4c0,0.6,0,1.3,0,1.8c0,0.6-0.2,1.1-0.4,1.4c-0.2,0.3-0.6,0.6-1,0.6l-2.6,0.4
		L53.7,11.2L53.7,11.2z M55.3,12.9l1.2,8.6l0.7-0.1c0.4-0.1,0.6-0.3,0.7-0.6C58,20.4,58,20,58,19.4c0-0.6-0.1-1.5-0.3-2.6
		c-0.2-1.5-0.5-2.6-0.7-3.2c-0.2-0.6-0.5-0.9-0.8-0.9L55.3,12.9L55.3,12.9z M60.1,10.3l1.8-0.3l3,12l-1.4,0.2l-0.7-3l-1.5,0.2l0,3.1
		l-1.3,0.2L60.1,10.3L60.1,10.3z M62.3,17.4l-0.9-4l-0.4-1.9h0l0.1,1.9l0,4.2L62.3,17.4L62.3,17.4z M63.8,9.8l2.6-0.3
		c0.7-0.1,1.3,0.3,1.8,1.2c0.4,0.9,0.8,2.5,1.1,4.8c0.1,0.9,0.2,1.8,0.2,2.4c0,0.6,0,1.3,0,1.8c0,0.6-0.2,1.1-0.4,1.4
		c-0.2,0.4-0.6,0.6-1,0.7L65.5,22L63.8,9.8L63.8,9.8z M65.4,11.5l1.3,8.6l0.7-0.1c0.4-0.1,0.6-0.3,0.7-0.7c0.1-0.3,0.1-0.8,0.1-1.4
		c0-0.6-0.2-1.5-0.3-2.5c-0.2-1.5-0.4-2.6-0.7-3.2c-0.2-0.6-0.5-0.9-0.8-0.9L65.4,11.5L65.4,11.5z M74,8.4l1.4-0.2l2.1,5.8l1.1,3.4
		c-0.3-1.9-0.6-3.3-0.7-4.1c-0.1-0.8-0.2-1.8-0.3-2.6L77.1,8l1.3-0.1L80,20l-1.3,0.1l-2.2-5.7l-1-3.2c0.2,1.2,0.4,2.3,0.5,3.4
		c0.2,1.1,0.4,2,0.5,2.7l0.3,3l-1.3,0.2L74,8.4L74,8.4z M80.5,7.6l1.8-0.3l3.2,12L84,19.5l-0.7-3l-1.5,0.2l0,3.1l-1.4,0.2L80.5,7.6
		L80.5,7.6z M82.8,14.7l-0.9-4l-0.3-1.9h0l0.1,1.9l0,4.1L82.8,14.7L82.8,14.7z M87.8,10.8c-0.1-1.4-0.5-2.2-0.9-2.2
		c-0.6,0-0.9,0.8-0.7,2.3l0.3,4.2c0.1,0.9,0.2,1.6,0.4,2c0.2,0.4,0.5,0.6,0.7,0.6c0.3,0,0.5-0.3,0.6-0.7c0.1-0.5,0.1-1.2,0-2.2
		l1.4-0.1c0,0.8,0,1.6,0.1,2.2c0,0.6-0.2,1.2-0.5,1.7c-0.2,0.6-0.7,0.9-1.4,0.9c-0.6,0.1-1.1,0-1.5-0.3c-0.4-0.3-0.7-0.8-0.9-1.6
		c-0.2-0.7-0.4-1.8-0.5-3l-0.2-2.1c-0.1-1.4-0.1-2.5,0-3.3c0.1-0.8,0.3-1.4,0.6-1.8c0.3-0.4,0.8-0.7,1.3-0.7
		c0.8-0.1,1.4,0.2,1.8,0.9c0.4,0.7,0.6,1.8,0.7,3.1L87.8,10.8L87.8,10.8z M89.4,6.7l1.4,0l0.8,12.3L90.2,19L89.4,6.7L89.4,6.7z
		 M96.6,13.7c0,1.1,0,2.1,0,2.8c-0.1,0.7-0.2,1.3-0.5,1.8c-0.3,0.5-0.8,0.7-1.4,0.8c-1,0-1.6-0.4-1.9-1.3c-0.3-0.8-0.5-2.1-0.6-3.7
		v-0.2l-0.1-1.5v-0.1c0,0,0-0.1,0-0.2c0-0.2,0-0.5,0-0.8c0-0.3,0-0.8,0-1.3c0-0.5,0.1-1.1,0.1-1.4c0-0.4,0.1-0.7,0.2-0.9
		c0.2-0.6,0.5-1,0.8-1.2c0.3-0.1,0.6-0.3,0.9-0.3c0.7,0,1.2,0.2,1.5,0.8c0.3,0.6,0.6,1.3,0.7,2c0.1,0.8,0.2,1.8,0.2,2.7L96.6,13.7
		L96.6,13.7z M93.4,10.6l0.2,4.4c0,1.6,0.4,2.3,1,2.3c0.6,0,0.9-0.8,0.8-2.3l-0.2-4.2c0-0.5-0.1-1.1-0.2-1.6
		c-0.1-0.6-0.4-0.9-0.8-0.9c-0.3,0-0.6,0.2-0.7,0.7C93.4,9.2,93.3,9.8,93.4,10.6L93.4,10.6z M97.1,6.2l1.4,0l1.5,5.9l0.8,3.5
		c-0.1-2-0.3-3.4-0.3-4.2c-0.1-0.8-0.1-1.8-0.1-2.6l0-2.7l1.3,0l0.3,12.3l-1.3,0l-1.6-5.9l-0.7-3.3c0.1,1.1,0.2,2.3,0.2,3.4
		c0.1,1.1,0.1,2,0.2,2.7l0.1,3.1l-1.3,0L97.1,6.2L97.1,6.2z M104,6l1.8,0l1.4,12.3l-1.4,0l-0.3-3.1l-1.5,0l-0.5,3.1l-1.4,0L104,6
		L104,6z M105.4,13.4l-0.4-4.1l-0.1-1.9h0l-0.1,1.9l-0.6,4.1L105.4,13.4L105.4,13.4z M107.4,6h1.1v10.6h2.1v1.8h-3.3V6L107.4,6z
		 M173.9,42.2c-6.5-0.8-11.9-4.7-1.8-7.6c3,4.6,6.8,4.8,25.3,3.3c3.4-0.2,8.7-0.9,13,2.8c-1.6-0.2-5.2-1.2-7-0.8
		c-2.7-0.4-6.8,0.4-7.6,1.2C184.4,38.7,175.8,40.9,173.9,42.2L173.9,42.2z M172.4,27c6.5,0,26.7,5.5,30.9,6.8c-1.3,0-1.5,0.8-4,0.3
		c-14.1-2.2-27.1-4.4-33.2,1.5C167,33.7,168.6,29.3,172.4,27L172.4,27z M51,27.3c1.9,1.6,5.2,5.7,6.6,8.3c-4.1-2.2-7.6-2.9-9.4-2.8
		c-3-0.3-21.8,3.3-26,2.7C27.9,31.6,46.5,28.3,51,27.3L51,27.3z M46.9,42.7C40.7,41,32.2,43.2,31,43.1c-1.2-0.7-9.1-2.4-12.6-1.9
		c3.4-2.9,17.2,1.3,26.3-1.9c2-0.7,5.8-2.9,6.8-3.5c0.9-0.6,4.2,0.8,6.4,2.6C54.2,42.9,49.7,42.5,46.9,42.7L46.9,42.7z M14.6,20.5
		c-0.1-3.9,12.7-6.2,24-8.6c49.6-8.1,84.5-10.8,141.6-1.7c6.5,1.9,27.4,5.9,28.3,9.1c0.3,1.9-0.6,5.6-2.7,7.1c-1.5,1.1-1.6,4-2.1,6
		c-4.8-2.2-22.9-6-38-8.3c-37.8-5.7-84.8-3-116.9,1.8c-11,1.6-25.3,6.5-28.7,8.7c-0.4-2.7-1.7-6.6-1.7-6.6
		C17.2,25.1,14.7,24.1,14.6,20.5L14.6,20.5z M169.8,26.3c-4.2,4.8-6.2,7.9-6.1,13.4c0.8,1.6,4.7,4.5,8.8,4.6c-1.5,3,0.5,5.4,2.6,6.7
		c-2.8,4.8-7.2,5.9-10.7,8.3c0.7,0,1.7,1.3,3,1.8c4.4-0.1,13.5-6.1,13.5-11.8c-1.2,0-2.7-0.5-3.5-2.1c2.6-5.8,11,1.9,1.7,9
		c-0.8,0.7-7.6,4.8-10,5.7c0,1.5,2.3,2.9,2.9,2.8c1.2-0.1,0.6-1.5,0.8-1.5c0.3,0,1.2,0.4,1.6,0.3c0.1-0.7,0.2-1.4,0.3-2.2
		c0.3,0,1.4,1.9,2.4,1.3c0.8-0.7-1.1-2.3-0.2-2.3c0.7,0,2.1,0.9,2.3,0.9c0.4-0.7-0.3-1.3-0.5-2c0.8-0.8,1.5,0.6,2.3,0.6
		c0.9-0.5-0.6-1.5-0.1-2.1c1,0.4,1.6,1.6,2.5,1.2c1-0.5-1.2-2.8-0.5-2.8c0.5,0,1.7,0.9,2.4,0.4c0.7-0.4-1.8-1.4-1-1.4
		c0.9,0.8,2.1,1.1,3.5,1.1c0.5-0.8-2.1-2.1-1.6-2.6c0.6-0.6,3.1,2.2,3.9,1.4c0.7-1.3-2.5-2.6-2.4-3.1c0.8-0.3,3.1,1.4,4.3,1.1
		c0.9-1.3-3.6-2.5-3.2-3.1c0.2-0.5,3.9,2,4.9,1.4c1.1-0.8-3.9-2.8-3.7-3.1c0.1-0.3,4.7,3,6.1,1.9c1.4-1.3-5.3-2.6-4.6-3.4
		c0.2-0.3,5.5,2.7,6.4,2.1c0.5-1.1-3.2-1.9-4.7-3.4c2.8-1,6.9,2.7,6.2,5.2c-0.4,1.1-7.5,4.1-7.8,4.2c-6,3.2-9.7,9.6-19.4,10.5
		l0.4,2.3c9.1-0.4,16.5-6.2,23.2-9.6c8-4.4,12.3-1.6,13.1-6c0-2.8-7.6-8.9-10.5-9.6c2.2-0.9,5.5-1.1,8.1-0.5
		c-0.8,3.1,0.9,7.9,3.5,8.1c0-2.4,3.6-6,2.1-8.9c-1.4-5.8-11.4-4.5-22.4-4.5c-3.3,0-13.9,1.5-15.9-3c19.4-1,28.3,5.4,31.8,0
		c0.8-1.6,0.1-3.5,0.8-4.7c1.8-2.6,4.8-6.1,4.2-9.7c0.5-4.8-33.4-11.8-48.4-13.6c-7.1-1.1-17.6-2.1-21.1-2.1
		C131.2,3,121,3,114.8,2.7c-27.9,0.4-55.2,2.4-80.4,8.2c-10.4,2.6-20.8,4.7-21.2,8.5c-1.9,7.5,5.1,5.7,4.7,14.7
		c1,7.8,24.2-0.9,30.9,0.4c-8.4,7.7-23.1,2.2-27.6,3.8c-12,1.8-6.2,9.9-6.4,13.7c2.7-0.7,6.3-3.3,5.2-9c2.3-0.3,5.2,0.4,8.4,1.6
		c-3.2,2-9,3.9-7,8.1c2.1,2.3,0.5-0.7,24.2,9.5c0.7-0.2,7,4.7,8.8,2.8c-0.2-3.4-9.8-3.5-15.1-10c-3-5.7,2.6-9.7,4.8-6.4
		c0.1,1-1.2,2.1-1.9,4C42,57.1,54.5,63.1,61.5,63.7c0.8-1.3,3.4-3.4,4.4-4.4c-3.5-0.8-20.5-3.9-14.7-10.2c0.9-0.9,3.2-3.3,2.5-5
		c2.9-1.9,9-4.6,5.2-11.8c0,0-2.6-2.6-3.8-5c1.8-1.1,23.1-3.5,35.4-4.2c3.2-0.1,15.3-0.1,20.4-0.6c6.5,0.5,18.7,0.3,27.3,0.5
		C149,23.9,158,24.8,169.8,26.3L169.8,26.3z M125.2,92.6c-1.3-0.2-4.3,0.3-9.8-1.6c-1.2-0.5-3.3,0.9-3.7,1.7c-0.6-1.9-4.1-1-5.1-1.2
		c-1.1-1.2-1.2-2.5-1.2-3.8c0-0.1-2.3-0.5-3.7-0.1c1.3-2.3,0.8-4.9,0.8-6c-4.6-0.9-2.3,3-5.8,2.8c-3.3-1.4-3,0-3-6.4
		c-0.5,0-1.8-0.7-2.3-1.7c-0.6-1.3-2.6-1.4-3.1-1.1c0,0-2.9-0.9-3.3-1.3h59.6l0,45c0,13.2-20.3,34.6-34.6,39.7
		c-13.5-4.8-30.3-23.7-30.1-39.8l0-41.8c1.7,2,0.5,2.2,0.5,3.6c1.9,0.5,2.3,2.4,3.5,2.9c0.7,0,0.8-0.6,0.4-1.6
		c-1.1-1.7-1.8-5.1-2.5-6.7c2.4,1.6,2.6,6.5,5.7,9.5c1.5,3.6,2.3,3.6,9.7,3.4c-0.2,1-0.7,2.3,3.6,2.3c1.1,0.8,3.9,1.9,5.1,3.6
		c1.4,0.1,1.4-1.5,5.1,0.7c-1.1,4.3-4,6.2-4,7.2c-0.4,3-1.4,4.4,2.8,9.7c-0.6,3.9,2.1,6.1,4,6.1c-2.1,5.1-1.8,10.7-3.4,15.4
		c-0.2,0.4-0.4,6.1-1.2,7c0.3,16.2,8.5,15.8,6.7,4.6c0.8-1.5,2.6-1.2,2.9-2.9c0.7-3.5,2.5-3.9,3.5-4.7c0.1-0.7-1.2-1.2-1.6-1.2
		c0.7-0.1,3.2-0.6,4-0.7c1.2-1.6,8.4-6.5,10.5-10.5c2.4-1.8,4.7-1.2,6.5-3.1c1.3-1.4,0.2-6.6,1.7-7.5l0.7-3.8
		c-1.4-7-6.5-9.3-8.3-9.4c-2,1-3.9,0-3.8-1.9C132.4,95.3,128.4,96.6,125.2,92.6L125.2,92.6z M78,72.2h68.2l0,47.7
		c-0.5,10.7-15.8,31.9-36.3,40.2c-18.8-7.3-31.6-27.4-31.8-40.9L78,72.2L78,72.2z M65.1,61.5l92.5-0.1l0.7,56.2
		c-1.7,21.2-21.5,43.5-47.6,54.9c-31.4-10.5-46.1-38.4-45-56.8L65.1,61.5L65.1,61.5z M67.2,63.4H156v53.8
		c-0.1,22.5-25.1,44.9-45.6,53.4c-23.7-7.8-43.4-32-43.1-52.8C67.3,117.8,67.3,63.5,67.2,63.4L67.2,63.4z M37.5,163.7
		c-1.5,0.4-2.7,5.2-4.8,5.3c-0.6,0.5,0.2-0.9-0.2-2c-0.6-0.8-2.8-0.6-3.5-3.1c3.4-0.2,6.9-3.7,8.6-2.1
		C37.9,162.4,37.9,162.9,37.5,163.7L37.5,163.7z M36.7,157.6c7,0.4,3.1,5.5,3.7,7.1c-0.3,0.2-0.8,0.1-1.3-0.2c1-0.7,0.9-4.7-1.1-5
		c-1.4-0.3-6.1,1.2-7.4,2c-1.4,0.6-2.5,0.8-3.8-0.3c-0.4-0.2-0.5-1.3,0.2-1.8c-0.2,2.4,2.1,1.4,1.5,1.3c0.4-0.6,0.7-2.3,0.2-2.3
		c-0.7-0.1-1.4,0.2-1.5,0.1c-1.5-0.1,1.9-2.3,3.7-2.3c0.6,0-0.5,0.6-1,1.2c-0.5,0.5-0.8,1.3,0.4,1.3c0.6,0-1.9,2.7-0.9,2.5
		c2.9,0.1,2.7-1.4,3.7-2.2C35,157.9,36.7,157.6,36.7,157.6L36.7,157.6z M26.4,201.6c-1.2,0.8-2.5-0.9-3.6-1.7c1.1-2.4,3-2.9,4.1-0.5
		L26.4,201.6L26.4,201.6z M14.3,159.8c0.8-1.2,2.2-1.5,3.5-1.3c0.2,1,0.5,2.3-0.2,3.2C16.3,161.6,15.3,160.7,14.3,159.8L14.3,159.8z
		 M122.1,208.4c1,1.1,4.7,3.3,5.7,3.6c-4.4-0.1-5.8-2.8-9-3.2c-0.8,0.2,2.1,3.7,1.3,3.5c0.2,0.4-2.3-1.9-1.7-1.4
		c-2.9-4.1-4.6-4.7-8.9-4.5l1-1.9C116.6,203.4,124.2,209.6,122.1,208.4L122.1,208.4z M95.7,191.1c0.9-0.6,1.9-0.9,1.5-4.5
		c3.2,0.6,9.6,6.7,10.3,8.2c-0.8,0.8-3.6-2.2-9.3-1.1c-1.7,0.9-10.4,0.1-7.9-4.4C93,187.8,92,194,95.7,191.1L95.7,191.1z
		 M103.8,204.4c-4-5.8-13-3.6-16.1-10.9c-0.4-0.8-0.8-0.9-1.2-0.9c1.1,10.3,13.3,6.2,13.1,13.4c-0.3,1.6-0.8,4.4-1.6,6
		c-1.9-2.1,0.8-9.8-2.7-8.3c1.4,8.8-5.9,7-5.9,7c6.3-4.9,3.3-6.8-1.6-12.2c-0.9-1.5-1.9-3.8-2.3-6.2c0-5.4,6.1-9.6,9.4-4.9l-0.2,1.5
		c-2.4-3.5-6.8-2.5-7.4,2.2c0,1.2,1.8,3.8,5.1,4.1c1.2,0.8,5.6,0.7,9.5,0.1c7.5,0.4,6.3,4.8,9.5,5.9c0.9,0.3,2,0,2.6,0.2
		c1.2,1.2-4.8,1.1-5.7,0.9c0.3,3.1-2.7,6.8-5,4.2c2.8,0,3.6-3.3,3.6-4.1c0.2-5.4-8.9-6.8-12.1-5.6c0.2,0.5,0,1.3,0.9,1.5
		c1.8,0.8,3.7-0.1,5.5,0.6C104.7,201.3,105.3,203,103.8,204.4L103.8,204.4z M191.3,168c2.8-1.4,4.9-3.3,8.3-6.8
		c6.9-7.7,15,0.3,7.8,5.7c-2.6,1.6-8.2,4.1-14.4,3.9c-0.9-0.1-4.5,0.5-6,0.1c-1.2-0.4-0.6-1.9,0-2.2
		C187.9,168.3,189.5,168.8,191.3,168L191.3,168z M166.1,187.2c-1.5,0.1-3.2-0.1-3.5-0.6c-1.3-4.9,4.1-16.2,11.4-18.1
		c2.3-0.6,6.6-3.9,11.5-0.7c-1.5,4.7-0.1,5.9,1.9,5.2C189,178.5,169.8,180.6,166.1,187.2L166.1,187.2z M176.9,190.6
		c1.6-0.5,11.4-3.5,13.5-2.7c8.7-1.4,20.6,14.7-1.4,13.2c-4.4,0.2-12-6.2-19.6-5.6c-2.7-0.9-0.6-3.8,0.5-4L176.9,190.6L176.9,190.6z
		 M140.7,203.6c-2.5-0.8-5.4-0.9-7-0.6c-1.9-1.6-1.3-5.9,7.2-5.9c-0.6,0.6,0.8,3.5,2.5,2c0,0,2.3-2.1-0.3-2.7
		c3.4-1.3,22.6-10.2,24.1-5.7c-0.9,2.6-1.8,7.2,3.1,6.9c1.2,1.6-5.4,6.8-9.8,7.7c-4.3,0.9-12,1.1-17.5-1.8c0.4-0.6,0.4-2.1,0.8-2.1
		C142.5,200.1,140.7,201.2,140.7,203.6L140.7,203.6z M37.2,177.4c-0.4,0.6-1.3-1.3-1.9-3.1c-0.2-0.6,0.2-1.3,0.1-1.9
		c-0.1-0.6-1.6-0.4-0.8-1.7c1.6-2.5,2-5.7,5.6-4c0.8,0.1,1.4-0.3,1.6-1.1c-0.2-5,1.9,0.7,4.8,3.3c1.4,0.5,2.1,1.5,0,2.1
		C43.7,172.6,38.3,177.3,37.2,177.4L37.2,177.4z M80,206c-3.9,0.9-18.8,2.4-19.6-6.9c-0.9-9.4,8.2-7.6,10.1-8.1
		c2.4,0,11.7,2.1,13.1,2.5c0.8,1.6-0.3,2.7,4.2,8.2C88.6,202.7,81.2,206,80,206L80,206z M63.2,190.3c-0.9,0-2.5,1.9-3.5,2.6
		c-2.2,0.2-6-1.1-7-4.5c0.2-0.7,1.5-2.1,0.7-3.4c-0.4-0.3-1.9,0.5-2.9,1.7c-0.2-0.3-0.8-1.1-1.8-1.4c-0.3-0.6,0.5-1.5-0.2-2.6
		c-0.9,0-1.5,0.9-2.1,1.4c-0.9,0.6-2,0.2-3.1-0.6l0.3-2.4c-3.1,0.6-4.6,7.2-5.8-1.3c3.5-4.1,10.3-6.8,13.8-10
		c-0.4,0,8.2-7.5,7.7-7.5c1.3,0.7,2.9,1.8,2.9,2.9c4.5,2.1,6.7,5.4,11.1,10.3c9.7,1.4,9.1,4.3,17.5,7.8c-3.1,1.2-7.8,3-7.5,8.2
		c-1.6-0.4-3.7-1.1-5.4-1.7c-0.4-0.9-1-3-2.3-4.4c-0.7,0.5-0.8,1.7-0.7,3.6c0.1,0.6-1-0.3-2.9-0.2c-0.4,0-0.7-2.5-1.1-2.5
		c-1.3,0-1.1,2.4-1.3,2.7c-2.3,0.9-2.9,0.6-4.7,0.5c0.2-1.3-0.2-2.3-1.4-3.3C62.4,187.7,63.3,190.3,63.2,190.3L63.2,190.3z
		 M116.3,202.8c1-3.6-1.9-2.1-3.6-3.4c4.2-1.6,8.5-5.8,13.5-4.8c9.8,2.7,2.3,4.6,5,10.4c-3.4,4.4-7,2.4-10,0
		c0.8-2.1-1.4-3.1-3.2-1.8C117,203,116.8,202.7,116.3,202.8L116.3,202.8z M103.6,179.6c-1.7,1.6,1.8,4,2.3,3.1
		c0.5-0.3,0.2-1.4-0.2-2.1c2.3,1.2,7.3,1.5,9.7,0.9c1.2,0.3,6-1.7,7.1-2.2c4.4,1.2,6,3.4,10.2,5.1c-0.1,0.6-0.1,5.9-3.6,8.8
		c-6.2-2.8-13.1,2.6-16.6,3.5c-6-7.8-10.6-9.9-15.3-13c-2.1-1.3-9.4-4.7-12.4-6.7c-0.5-1-0.8-3.5-0.8-5.2c-1.6,0.1-1.8,1-1.3,3.1
		c-0.5,1.1-0.9,0.5-1.7-0.3c-0.7-0.6-0.8-0.2-1.3-2.8c-1.6-0.7-1.6,1.5-1.6,2.2c-1.2-0.2-2.3,0.2-2.9-0.4c-0.9-0.9,1.2-0.8,1.5-3.5
		c1.6-1.3,10.7-1.7,12.5-1C93.6,174.9,98.5,177.4,103.6,179.6L103.6,179.6z M139,190.6c-1.1,1.8-2.9,3.9-4.3,5
		c-1.1,0.4-1.8-0.7-3.6-1.9c0.4,0,1.6-2,1.9-2c5-20.1,12.4-20.8,15.8-20.1c0.1,0.7-0.1,2.2,1,1.8c0.6,0.2,1.8-0.7,1.9-1.4
		c0.7,0,1.3-0.2,1.8-0.8c-0.3-0.7-1.4-1.1-1.5-1.6c0.5-5.9,9.2-3.3,4.5,1.9c-0.4,0.5-3.5,1.1-4.4,3c3.6,2.1,1.4,4.2,0,7.1
		C150.3,185.3,144.6,188.9,139,190.6L139,190.6z M52.2,191.6c4.4,3.2,5.5,3.3,6.2,3.2c-0.6,2,0,3.3-0.5,4.6
		c-3.8-0.3-8.1,1.4-11.7,1.4c-9.8,0-14.7,0.6-18.7-4.2c-4-4.8,2.5-10.2,4.7-10c1.2-6-18.3-10.5-14.5-21.1
		c4.3-12.1,20.4,11,18.6,22.4c1.6,0.7,0.9-2.7,4.2-2.5C44.3,186.5,47.7,185.2,52.2,191.6L52.2,191.6z M104.5,177.9
		c-4.4-1.3-7.6-3.4-14.2-10.9c-2.7-0.8-5.9-0.8-9.3,0.4c-3.7-0.8-5.7,0.1-8,4c-3.2-3.4-7.4-7.2-9.9-7.8c-1.1-2.1-3.4-4.1-3.8-3.4
		c-3.4,1.9-5.4,6.1-10,7.7c-0.3,0-6.2-6.5-6.2-7.3c-0.1-2.2-1.4-3.7-2.1-4.6c2.3-2,0.6,3.7,4.4,0.5c0.6-2.9-1.9-3.9-3.8-3.6
		c-2.9,0.3-4.6,3.6-7.5,3.3c0.3-3.9-0.9-3.5-2.1-3.5c-2,0.1-3.2,2.9-4.6,3.3c-2.6,0.7-3,1.8-3.1,3.9c0.8,1.1-2.3,0.7-3.8,0
		c-0.4-0.2,0.2-3-0.8-3.8c-5.2-0.3-3.5-1.6-3.5-2.1c-0.5-1.8-2-1.2-3.1,0.6c2,4-0.9,3.6-1.2,5.7c0,0,7.2,3.2,1.9,6.2
		c2.2,2.7,0.9,4,0.9,6.3c0.9,1.5,4,1.8,3.7,5.8c3.2,0.2,5,2.3,5.4,3.4c3-0.3,4.5,1.4,5.3,3c-2.2,4-5.1,1.3-4.6,3.8
		c-0.5,1.6,0.6,2.6-0.2,3.4c0.8,0-1.8,1.9-1.4,1.9c-0.8,1.6,3.2,0.2,1.6,2.4c0.3,0-4.3,1.9-3.7,3.7c2.5,2.2,0.5,3.2-1.9,4
		c-1.1,1,0.6,0.9,0.9,0.6c0.8,0,0.3,2.9,2.9,1.5c-0.7-4.2,1.6-2.1,4.4-2.1c1.5,0.2,0.6-6.5,4.9-1.4c0.1-0.1,1.6,0.6,2.1-0.5
		c1.3-0.2,3.6,0,5.3,0.4c0.9,1.9,1.6,1,1.8,1.2c0.4,0,1.1-0.1,1.2-1.3c1.4-0.1,4.6,0.4,5.9,0c0.6,0.9,1.6,0.8,2,1.1
		c0.9-4.1,10.2-4.1,10.9,2.2c3.3,0.6,5.3,2.6,7.4,3.4c2.6-0.6,5.7-1.4,7.8,0.5c1.6-1.4,4.4-3.2,6.7-2.3c2.2-2.5,5.6-3,6.6-3.6
		c4.6,3.9-7.3,6.2-2.8,10.6c2.1-3.7,6.2-0.8,9.1-3.4c1.1,2.3,2.5,3.6,4.4,2.8c-0.8-3.1,0.4-4,1.6-6.4c3.9,2.6,8.3,4,11.9,4
		c0.2-0.8-1.9-2.5-1.6-3.3c5.3,0.7,5.7,7.5,11.4,6l-1-2.2c1.5,0,2.7,1.8,5.1,1.8c2.9,0.3,5.4-0.4,6.6-2.2c-2,0-4.1-0.8-5.7-2.5
		c9.3-6.3,0.6-5.1,13.6-3.8c4.3,1.5,9.6,2.5,14.2,2.4c5.3,0.1,8-2.3,12.9-3.7c0.5-2.3,3.4-3.1,3.2-5.5c1.8-1.4,3.7-0.9,4.6,0.4
		c4.8,0.1,2.1,2.6,4.6,3.2c2.8-1.9,3.9,1.6,5,1.3c5.7-2.6,5.3,1.3,6,0.7c2.6-2.3,6.5-2.1,7.3-1.6c0.5-1.3,1.7-2.2,2.5-2.2
		c0.4-1.4,0-2.8,0.8-4.4c3.4-2.8-0.7-2-0.7-3.5c-0.5-2.4-2-2.5-2.6-3.4c0.1-1.4,0-3.6-2.8-1.6c-1.3-1.2-6.5-3.2-18.6,0.5
		c-7.9,2.6-11.8,0.2-8.2-2c2.6-1.6,10.9-4.5,12.8-5.7c0.2-0.1,5.8-3.4,7.5-7.6c5.1-0.1,10.8-0.6,13.3-1.4c4.2-1.3,11.2-5.3,7.3-13.2
		c1-0.8,2.2-0.3,2.6-1.9l0.4-1.4l-1.6-1.9c0.8-3,2.9-0.7,3.2-2.2c0.6-1.4-1.3-1.3-2.3-1.5c-1-0.2-2.3-2.6-3.1,0
		c0.4,0.5,1.2,1.2,1.2,2.3c-1.4,0.1-7-2.9-5.3,4.3c-1.7,0.2-5,1.9-6.5,3.3c-1,0.2-0.3-2-2.1-2.4c-2.5-0.8-3.5,2.1-5-2.1l-2.7,1.6
		c0.2,0-0.3,1.6,0.3,1.4c2.2-0.9,2.2,0.7,2.4,0.7c-0.4,0.7-1.2,1.6-1.4,2.6c-0.4,1.2,1.1,2.4,4.5,2.3c-0.3,1.1-3.4,3.9-6.5,3.9
		c-0.6,0-5.7-2.6-8.8-2.1c-3.7,0.8-8.8,1.9-11.6,4.2c-2.3,3.4-5,4.8-5.1,6.3c0,1.6-2,4.8-2.8,4.8c0.2,5.6-0.1,9.3-3.1,7.4
		c-0.5,1.4-1.9,2-3.7,1.6c-1.3,0.9-2.5,1.7-4,1.1c-2.2,2.2-4.5,3.4-6.6,2.8c-1.6,1.8-3.2,2.5-4.8,2.1c0.1-1.1,2.3-2.8,4.6-4
		c1.4-0.5,4.5-0.7,7-2.7c2.2-4.2,4-5.4,5.7-6c0.1-1.9,0.7-5.3,0.3-6.9c0.8-1.6,2.2-2.9,3.8-2.9c0-2.3,1.4-4.3,1.4-5.9
		c-1.6,0-3.5-2.3-4.9-2.9c-0.9,0.5-2.9,1.3-3.7,1.6c-1.1,0.5-1.4,4-3.2,4.6c-10.5-1.5-14.6,10.3-15.6,11.8c-2.9,0.7-9.2-4.4-12.1-4
		c-3.3,0-6,2.6-9.3,2.4C108.8,180.2,105.3,177.9,104.5,177.9L104.5,177.9z M163.3,94.2c-0.7-0.3-1.4-0.4-2.5-0.1
		c-0.4,0.9-0.5,5.5-0.4,6.3C161.5,100.5,163.5,95.8,163.3,94.2L163.3,94.2z M162.9,150.2c-0.3,0.8,0.8,4.9,1.6,4.9
		C165.1,151.3,163.8,148.7,162.9,150.2L162.9,150.2z M167.5,149.3c-5.4-2,2.4,8.6-4.4,6c-1-5.4-1.8-7.3-3.5-3.5
		c0.3,1.6,1.2,4,1.2,5.6c2.7,2.1,5.3,2.1,7.7,0C169.2,155.4,169.1,149.3,167.5,149.3L167.5,149.3z M199.8,165.5
		c0.8,0,1.3-0.1,1.5-0.9c0.9-1.4-0.6-1.5-1.4-1.2C198.2,164.5,199.6,165.3,199.8,165.5L199.8,165.5z M203.7,167c0.8,0,1.3,0,1.5-0.7
		c-0.2-1.1-1.1-0.7-0.9-0.8C202.6,166.1,203.8,166.5,203.7,167L203.7,167z M202.9,162.2c0.8,0,1.4,0,1.5-0.8
		c-0.5-0.8-1.4-0.7-1.3-0.8C201.6,161.3,202.9,161.7,202.9,162.2L202.9,162.2z M207,162.7c0.8,0,1.3,0,1.5-0.8c0-1.2-1.1-1-1.3-0.8
		C205.4,162.1,206.7,162.5,207,162.7L207,162.7z M195.4,158.4c1.5-0.2,1.3,1.4,2.3,2.2c-1.1,0.8-2.1,0.2-4.6,0.1
		C193.1,159.4,194.6,158.4,195.4,158.4L195.4,158.4z M208.4,153.3c1.5-0.2,3,1.3,3.9,2.1c-0.6,1.1-2.1,1-3.1,1.1
		C207.5,156.3,207.5,153.3,208.4,153.3L208.4,153.3z M177.8,191.8c-0.8-0.2-3.2-0.2-2.5,2.1C176.2,193.8,178,193.1,177.8,191.8
		L177.8,191.8z M183.1,193c-0.8-0.3-4.1-0.5-2.7,2.6C181.8,195.6,184.2,194.3,183.1,193L183.1,193z M188.6,195.9
		c0.8-1.1-2.3-2.2-2.4-0.6C186.6,195.7,188.2,196.8,188.6,195.9L188.6,195.9z M187.2,191.2c0.6,0,3.1-0.1,1.5-2.2
		C188,188.9,185.8,188.7,187.2,191.2L187.2,191.2z M191.8,194.6c0.5,0,2.2-0.6,1.9-2.2C192.6,192.4,189.8,192.5,191.8,194.6
		L191.8,194.6z M195.4,199.4c0.8,0,4.3-1,3-2.6C196.9,195.6,194,197.8,195.4,199.4L195.4,199.4z M167.1,175.9c0.2,1.5,3,1.2,2.6-1.3
		C169,174.6,167.4,174.1,167.1,175.9L167.1,175.9z M179.5,169.7c-0.6-0.1-1.8,0.6-1.4,1.4c0.6,1,1.4,1,2.7,0.2
		C181.3,170.3,180.2,169.4,179.5,169.7L179.5,169.7z M181.4,176c0.8,0,1.2-0.2,1.3-0.9c0.9-1.1-0.7-2-1.5-2
		C179.5,174.3,181.2,175.9,181.4,176L181.4,176z M173.8,170.5c0.3,1.3,3.2,1.4,2.8-0.8C175.9,168.6,174.1,168.7,173.8,170.5
		L173.8,170.5z M176.5,174.6c0.7-0.4,1.2-1.5,0.9-1.9c-0.7-0.3-1.8-0.6-2.1,0.7C175.4,174.3,175.7,174.6,176.5,174.6L176.5,174.6z
		 M178.3,176.5c-0.4,0-2.2,0.3-1.8,1.5c1.1,0.8,1.8,0.6,2.1-0.1C179.3,177.2,178.9,176.6,178.3,176.5L178.3,176.5z M171.6,179.8
		c1-0.8,1.2-1.6,0.7-2.5c-0.7,0-2.6,0.2-2.6,1.7C170.4,179.8,170.4,180.3,171.6,179.8L171.6,179.8z M166.7,181.4
		c-0.4,0-1.3,0.4-0.9,1.6c1.1,0.8,1.6,0.8,1.9,0C168.2,182,167.9,181.4,166.7,181.4L166.7,181.4z M82.7,189.5
		c2.4-0.8-0.9-6.1-2.2-4.4C79.6,186.3,81.2,189.3,82.7,189.5L82.7,189.5z M106.9,187.1c-1.5,0.1-0.1,1.4-0.1,2.2
		c0.5,0.7,1.2,0.8,2,0.8C109.9,188.7,107.6,186.9,106.9,187.1L106.9,187.1z M112.5,186.3c-0.4-0.8-2.2-3.8-2.6-0.9
		c0,1.6,3.1,4.8,3.6,3.3C113.6,187.9,112.8,186.3,112.5,186.3L112.5,186.3z M120.2,197.3c0.9,0.9,2.9,0.6,3.6-1.1
		C124.1,195.5,119.3,194.9,120.2,197.3L120.2,197.3z M124.1,201.6c0.8,0.9,2.1,1.3,2.8-0.6C127.1,199.4,123.3,198.4,124.1,201.6
		L124.1,201.6z M137.5,187.7c-0.7,0-2,1-1.8,2.3c1.4,0.6,2.3,0.4,2.6-0.4C138.4,188.8,138.1,188.2,137.5,187.7L137.5,187.7z
		 M137.4,183.5c0.7,0.6,1.8,0.6,2.1,0.1c1.6-2.5-0.8-2.2-2-2C137.3,182.6,137,183,137.4,183.5L137.4,183.5z M142.6,182.6
		c0.7,0.6,1.8,0.7,2,0.2c1.7-2.5-0.6-2-1.8-1.8C142.5,182,142.2,182,142.6,182.6L142.6,182.6z M144.3,186.2c0.6,0.1,0.8,0,1.2,0
		c0.8-2.1-0.8-1.5-1.4-1.5C143.7,185.4,143.8,185.9,144.3,186.2L144.3,186.2z M148.9,182c0.6,0.1,1.6,0.2,2,0.2
		c1.7-2.6-1.1-2-2.2-1.8C148.3,181.3,148.4,181.8,148.9,182L148.9,182z M146.1,178.1c0.7,0.6,1.3,0.5,1.5,0c1.7-2.5-0.3-2.1-1.4-1.9
		C145.9,177.2,145.6,177.5,146.1,178.1L146.1,178.1z M144,174c0.7,1.8,2.8-0.3,2.2-0.7C145.1,172.5,143.9,173.1,144,174L144,174z
		 M155.1,167.9c0.8,1.8,2.2-0.1,1.6-0.6C155.6,166.5,155.1,167,155.1,167.9L155.1,167.9z M106.6,208.3c1.2,1.3,3.7,2,4.1,1.3
		c-1.1-0.4-1.5-1.2-1.8-1.8C108.1,207.9,107.3,208.2,106.6,208.3L106.6,208.3z M81.4,199.4c1.6,0,0.5-1.8,0.9-1.8
		c-0.4-0.4-2.8-0.5-3.3,1.1C78.8,199.1,79.8,199.4,81.4,199.4L81.4,199.4z M73.3,197.7c-0.8,0-1.7-0.1-2,1.6c1,0.8,2.1,1.1,2.9,1.1
		C76.1,199.4,73.6,197.7,73.3,197.7L73.3,197.7z M67,194c-2.7-0.3-2.7,1.8-0.5,2.3C67.3,196.8,68.3,194,67,194L67,194z M67.6,200.8
		c-1.2-0.4-2.6,0.9-2.5,1.4C66.9,204.6,69.6,202.1,67.6,200.8L67.6,200.8z M75.8,204.1c-1.1-2.5-2.4-2.4-2.9-0.1
		C73.9,205,75.7,204.9,75.8,204.1L75.8,204.1z M114.7,186.6c0.8,1.5,1.2,1.3,1.9,0.6c-0.1-1.4-1.9-4-2.8-3.5
		C113.8,184.5,114.4,186.6,114.7,186.6L114.7,186.6z M120,183.9c-0.4-0.9-1-1.2-2-1c-0.4,2.3,1.1,4,2.2,3.9
		C121.4,186.8,120.8,185.1,120,183.9L120,183.9z M122,182.2c-1.7,0.7,0.2,3.4,1.4,2.6C123.4,184,123,182.4,122,182.2L122,182.2z
		 M121.7,189.2c-1,1,0.9,1.3,0.9,2.1c0.6,0.7,0.3,0.6,1.1,0.6C124.1,189.3,122.3,188.8,121.7,189.2L121.7,189.2z M126.9,189.2
		c-0.7-1.6-1.5-2.6-2.6-1.7c-0.6,2.3,2.3,4.5,3.4,3.5C128.4,190.8,127.6,189.1,126.9,189.2L126.9,189.2z M127.4,183.7
		c-1.6,0.1-0.6,1.4-0.6,2.2c1.3,1.3,1.7,3.6,3.1,2.8C131.1,187.9,128,184.6,127.4,183.7L127.4,183.7z M97.3,183.1
		c1.1,0.8,1.6,0.7,1.5-0.3c-0.9-1-1.8-1.9-2.7-1.3C95.7,181.7,96.2,183.4,97.3,183.1L97.3,183.1z M99.6,182.2c0.8,0.7,2,1.2,2.8,1.2
		c1.1-0.7-2.3-4.6-3.3-3C99,181.2,99.2,181.7,99.6,182.2L99.6,182.2z M88.8,175.8l-0.9-2.5c-1-0.2-1.4,0-1.2,1
		c0,2.3,0.6,3.2,1.6,3.2C88.7,177.5,89,176.7,88.8,175.8L88.8,175.8z M91.5,173.5c-0.6-0.5-1.1-0.1-1.4,0.8c0,1.5,1.9,3.7,2.6,2.6
		C93.5,175.9,91.9,174.3,91.5,173.5L91.5,173.5z M66.1,173c-1.9-1-2.1,1.5-1,2.7c0,2.1,1.9,2.8,2.4,1.3
		C67.6,176.1,66.5,173.8,66.1,173L66.1,173z M56.8,187.2c-0.4,1-0.6,2.2-0.6,3.6c0.6,0.8,1.8,0.4,2.2-0.5
		C59.7,187.7,58.9,184.6,56.8,187.2L56.8,187.2z M45.8,176c-0.6-0.7-3.4,0.1-3,1.8C44,178.7,46.4,176.5,45.8,176L45.8,176z
		 M49.2,177.2c-0.6-0.6-3.1,1.3-2.8,3C47.6,181.5,49.8,178,49.2,177.2L49.2,177.2z M50.8,182.1c1.1,0.3,2.7-2.2,2-3.3
		C51.5,178.5,50.3,180.2,50.8,182.1L50.8,182.1z M56.9,179.5c-0.9-0.6-2.9,3.6-0.6,4C57.5,182.7,58,179.2,56.9,179.5L56.9,179.5z
		 M62.4,180.9c-1.1-2.3-2.4-2.6-2.4-0.4C60.4,185.8,62.9,187,62.4,180.9L62.4,180.9z M67.3,181.4c-1-1.9-1.5-1.9-1.6,0
		C65.1,185.8,68.3,185.6,67.3,181.4L67.3,181.4z M70.7,183.9c0.6,0.8,1.4,0.9,2,0.5c-0.1-4-2.2-5.9-2.8-3.8
		C70,182.3,70.5,183.1,70.7,183.9L70.7,183.9z M78.5,182.8c-0.8-0.7-1.6-3-3.9-3.2C74.2,183.6,78.5,186,78.5,182.8L78.5,182.8z
		 M83.2,181.4c-1.1-1.6-2.1-2.7-2.9-3c-0.8-0.5-1.6,0.5-1.5,1c1.5,1.9,3.5,6.1,5.4,3.7C84.5,181.9,83.5,181.4,83.2,181.4L83.2,181.4
		z M70.7,174.9c-0.8-4-2.5-1.9-2.4-1.4c1.2,3.8,2.5,5.1,3.2,3.1L70.7,174.9L70.7,174.9z M63,176.2c0.7-3.3-1.3-4.3-2.3-3.4
		C61.1,175.1,61.3,179.2,63,176.2L63,176.2z M59,173.5c-0.3-2.3-1.9-2.8-2,0.2c-0.8,0.9-1.9,1.1-1.3,2.7
		C57.7,177.2,58.3,175.1,59,173.5L59,173.5z M55.6,171.4c-0.8,0.1-4.7,1.8-3.2,3.3C54.1,175.2,57.4,172.1,55.6,171.4L55.6,171.4z
		 M48.9,172.7c-0.5,1.1,0,1.3,0.5,1.4c2.3-1,4.2-2.9,2.7-3.7C51.2,170.3,49.5,172.4,48.9,172.7L48.9,172.7z M44.4,187
		c-0.4,0-1.6,0-1.6,1.6c0.9,0.8,1.4,1,2.1,0.4C44.9,188.2,44.8,187,44.4,187L44.4,187z M44.6,196.9l-3-0.1c-0.5,0.6,1.3,2.7,2.5,2.1
		C44.1,198.9,45.4,196.9,44.6,196.9L44.6,196.9z M52.7,194.7c-1,0-2.3-1.1-3.2,0.1c0,0.4,0.1,1.7,2.8,2
		C52.7,196.4,53.1,194.7,52.7,194.7L52.7,194.7z M37.4,195.5c-0.4,0-1.7,0.3-1.7,1.8c1,0.8,1.8,0.8,2.5,0.3
		C38.3,196.8,37.8,195.5,37.4,195.5L37.4,195.5z M39.9,191c-0.8-0.8-1.9-0.7-2.6-0.1C37.2,195.4,41,190.6,39.9,191L39.9,191z
		 M31.1,190c-1.3-0.3-1.7,0.8-1.7,1c0.5,0.9,0.6,1.3-0.4,1.8c-0.9,0.6,2.1,4.6,3.4,4c1.3-1,0.1-2.6-0.7-3.4l0.6-1.7
		C32.2,191,31.8,190.5,31.1,190L31.1,190z M21.1,167.9c-1.6-0.5-2,0-1.4,1.1C20.9,169.8,21.8,167.9,21.1,167.9L21.1,167.9z
		 M21.9,173.2c-0.9,0.1-0.6,0.9-0.6,1.5c0.6,0.3,1.1,0.1,1.4-0.1C23.2,174.6,22.9,173.2,21.9,173.2L21.9,173.2z M23.7,165
		c-1.4,0.1-0.9,1-0.9,1.8c0.8,0.5,1.6,0.2,2.1-0.1C25.7,166.7,25.1,165,23.7,165L23.7,165z M26.6,172.2c-0.9,0.1-0.6,0.8-0.6,1.4
		c0.6,0.3,1.2,0.1,1.4-0.1C27.9,173.5,27.5,172.2,26.6,172.2L26.6,172.2z M27.4,176.6c-1,0.5-0.2,1.4,0.1,2.3
		c0.8,0.2,1.4-0.3,1.5-0.7C29.6,178.1,28.5,176.2,27.4,176.6L27.4,176.6z M32.4,177.4c-0.9,0.1-0.6,0.8-0.6,1.4
		c0.6,0.3,1.2,0.1,1.3-0.1C33.7,178.8,33.3,177.4,32.4,177.4L32.4,177.4z M44.1,171.2c1.7,0.6,0.7-2.5-0.6-3.8
		C41.2,168.1,43.4,170.9,44.1,171.2L44.1,171.2z M40.4,171.5c0.9,1,1.5-2.6,0.2-3.9C38.1,168.3,39.6,171.2,40.4,171.5L40.4,171.5z
		 M36.3,171.1c1.4,1.3,3.7-2.4,1.8-3.5C37,167.3,35.6,170.8,36.3,171.1L36.3,171.1z M151,194.4c-0.8,0-1.9,1.3-1,2
		c0.8,0.2,2.8,0.2,2.8-2.1L151,194.4L151,194.4z M152.3,198.8c-0.5,0.4-1.2,0.8,0,1.2c0.7-0.4,1.3,0.3,1.5-0.8
		C153.3,198.9,152.6,198.6,152.3,198.8L152.3,198.8z M155.3,202.6c-0.8,0-2.1,0.2-1.8,1.8c1.1,0.7,2.6,0,3.4-0.8
		C156.7,203.1,155.6,202.6,155.3,202.6L155.3,202.6z M161.6,198.9c-0.7,0.4-2,1.4-0.8,2.1c1.3,0.4,2.7-1.3,2.7-1.6
		C163.2,198.9,162.5,198.7,161.6,198.9L161.6,198.9z M158.9,193.2c-0.8,0.4-2,1.4-0.4,1.8c0.8,0,2,0,2-1.9
		C159.8,192.9,159.1,193,158.9,193.2L158.9,193.2z M21.6,154.3c0,1.2-0.1,3.5,0.6,3.3c0.6,0,1.3-0.7,1.5-1.6c1.1,0.1,2,0,2.2-0.5
		c-0.8-3.2,0.8-1.6,3.6-2.6c0.3-0.8,1.2-2.1,0.1-2.8c-1.6-0.1-1.2,0.9-2.9,1.5C23.9,151.4,22,152.9,21.6,154.3L21.6,154.3z
		 M67.6,154.2l1.1,0.2l0.3-3.7C67.5,150.1,67.6,151,67.6,154.2L67.6,154.2z M72.9,154.4c0.2-4.8-0.4-5.3-2.6-5.3
		c-0.7,9.1-4.9,7-3.8,0c-0.7-1.4-2.3,0.5-2.3,0.6C60.7,160.1,73.1,161.4,72.9,154.4L72.9,154.4z M80.7,156.3c0-2.5-0.5-1.7-2-1.7
		c-0.2,1.6,0,1.1-0.7,1.7c-0.2-0.2-0.4-3.2-0.8-3.2c-0.3,0-0.8,3.5-1.1,2.9c-0.4-0.8-0.4-2.2-0.3-4c-0.4-1.1-1.6,0.1-1.6,0.1
		C71.5,160.3,80.9,161.7,80.7,156.3L80.7,156.3z M57.6,152.9c0,2.4,1.2-0.8,1.2-2.3h-1.2V152.9L57.6,152.9z M63,150
		c0-2.4-1.7-1.3-2.5-1.3c-0.2,8.9-5.7,6.7-4-1.4c-1.2-0.8-2.3-0.7-2.8,0.9c0,2.8-1.1,5.4-0.1,6.9c1.8,2.7,6.4,3.1,8.2,1.2
		C62.8,155.2,63,152.8,63,150L63,150z M56,145c0.9,0.3,2.9,0.7,2.1-2.2C57.5,142.6,55.7,142,56,145L56,145z M62.8,143.6
		c-0.4-0.2-1.4,0-1.2,2.1c0.7,0.3,1.3,0.3,2,0C64.6,144.9,63.9,143.5,62.8,143.6L62.8,143.6z M67,146.5c1.1,0.2,1.7-0.5,1.8-0.8
		c0-1.2-0.9-2.6-2.3-0.7C66.5,145.7,66.8,146.1,67,146.5L67,146.5z M73.6,145.1c-1-1.1-1.3,0.6-1.3,1.4c0.8,0.7,1.1,0.7,1.9,0
		C74.4,145.9,74.1,145.3,73.6,145.1L73.6,145.1z M58.1,137.9l10.9,2.2c0.2-1,0.3-2.3,0.1-3.5c-0.9-1-1.8-1-2.6-0.1
		c-0.8-1.3-2.2-3-4.6-0.1c-0.5-1-0.4-2.3-0.7-2.8c-0.7-0.5-2.6-0.7-3.3,0C57.4,134.2,57.8,136.3,58.1,137.9L58.1,137.9z M58.3,141
		c4,0.6,8.4,1.9,12.5,2.4l0-2c-2-0.4-10.1-2.4-12-2C57.7,139.7,58.5,141.1,58.3,141L58.3,141z M174.1,132.7c-0.1-0.4-3.3-2.2-2.9-3
		c0.4-0.4,3.3,2.2,3.6,2.2L174.1,132.7L174.1,132.7z M172.3,135.4c-1.4,6.5,2,12.1,7.5,11.4c-2.2-2.9-3.9-6.2-1-10.4
		c2.5-2.1,6.4,0.5,7.9,2.3c1.8-3.1-0.7-5-3.5-5.8c0.6-0.8,4-0.5,5.6-0.5c-1.3-2.5-4.6-5.3-11.4-2.5c-3.2-1.6-6.7-4.6-9.1-5.6
		c-2.1,1.1-4.6,0.8-5.8,0.1L172.3,135.4L172.3,135.4z M64.6,91.9c-2-1.4-1.5-0.8-3,0c0.1,1.6,0.6,5.2,1.2,5.2
		C63.9,96.4,64.1,93.3,64.6,91.9L64.6,91.9z M61.5,80.3c-0.7,0-1.9-0.6-2,1.1c-0.2,2.1,2.9,1.2,3.4,0.8
		C63.9,80.5,62.7,80.5,61.5,80.3L61.5,80.3z M59.3,78.8c1.5,1.5,5.9,1.4,4.5-0.7C62.9,78,59.3,76.4,59.3,78.8L59.3,78.8z M60.3,76.3
		l-0.2-2c1.3-1,2.7-1.3,4.2-0.9c0,0.6,0.1,1.3,0.1,1.8C63.2,76.1,61.9,76.4,60.3,76.3L60.3,76.3z M61.6,97.7
		c1.8,8.3,4.8,14,1.8,21.2c-1.8,2.5-4.1,3-6.1,3.1c-2.6-0.7-5.2-2.1-4.6-6.2c-0.3-0.6,2.3-2.9,3.4-2.4c1,0.1,2.1,0.8,2.7,2.4
		c4.6-8.9-5.6-17.5-3.1-40.5c1.2-6.1,4.6-11.7,8.2-11.7L64,67C58.8,70.5,55.7,82.4,61.6,97.7L61.6,97.7z M155.1,150.7
		c-0.9-0.8-1.8-0.2-1.6,0.6c0,1.5,0.8,3.1,1.5,3.1C155.3,153.5,155.3,151.4,155.1,150.7L155.1,150.7z M158.6,151.1
		c-1.1-1.5-2-1.5-2.7,0.2c1.3,5.5-2.8,5.1-3-0.2c-0.1-1.4-2.6,0.2-2.9,0.2c0,1.5,1.5,4.6,1.5,6.2
		C152.8,160.1,162.8,161.9,158.6,151.1L158.6,151.1z M148.4,157c0-1.5-0.7-5-0.7-6.7c-1.4-1-3.5-0.7-3.3,1c0,1.6,0,4-0.3,5.5
		c-0.9-3.8-0.9-2.8-1.3-1.5c0,0.7-0.3,1.5-0.3,2.2c-1.8-6.4-6.1-1.2-3.3,2.3C141.8,160.8,149.3,160.8,148.4,157L148.4,157z
		 M161.7,144.9c0,0.7,0.9,2.5,1.3,2.5C163,143.6,162.5,143.4,161.7,144.9L161.7,144.9z M164.3,140.6c-1.3-1.1-4.9,0.5-5.1,1.6
		c-0.9,4.6,0.2,7.4,2.1,4.6c0-0.8,0-1.8,0-2.6c0-0.9,0.2-1.4,1-1.9c1.4,2.7,2,6.2,3.8,2.8C165.6,142.8,165.1,141.6,164.3,140.6
		L164.3,140.6z M153.7,143.9c-1.1,4.2-0.6,4,1.3,3.5C155.2,146,154.5,143.9,153.7,143.9L153.7,143.9z M154.1,142.8
		c1.2-0.8,1.3,3.6,1.8,5.3c1.2,0,3.3-1.5,1.3-6.1c-1.5-2.1-6.4-1.5-6.8,0.2c-0.5,1.5-0.8,4-0.2,5.7
		C154.1,150.1,150.8,143.4,154.1,142.8L154.1,142.8z M157.2,134.8c0.6-0.4-0.8-1.8-0.5-1.4c-0.7,0.1-2.9-1.2-1.8,2.1
		C155.7,135.7,156.7,135.4,157.2,134.8L157.2,134.8z M159.7,129.2c-0.3,0.2-1.3-0.2-1.5,0c-0.4,0.2-1.2-1.7-1.4-1.4
		c-2,7.1,5.1,4.4,6.5,3.6c0.3-1.9-1.4-6.1-2.1-8.6C160.5,122.7,159.7,128.3,159.7,129.2L159.7,129.2z M163.2,132.8
		c-0.5,0-1.5,0.3-0.9,2c0.8,0,1.8,0.2,2.3-0.8C164.6,133.5,164,132.9,163.2,132.8L163.2,132.8z M159.2,133.1c-0.6,0-1.4,0.6-0.9,2.2
		c1.1,0.4,1.7,0.4,2.2-0.7C160.8,134,160.2,133.2,159.2,133.1L159.2,133.1z M164.1,139.1c1-0.8,0.8-1.6,0-3.2
		c-1.6-0.3-7.6,0.7-9.9,0.3c-0.6,0.7-2,1-0.5,3.2C155.5,140,163.3,139.4,164.1,139.1L164.1,139.1z M132.6,99.2
		c0,0.1,0.1,0.1,0.1,0.3c0,0,0,0,0,0l0.1,0.3h0.1c0,0.1,0,0.2,0.1,0.2v0.1h0c0,0,0,0.2,0,0.2h0c0,0,0.1,0.1,0.1,0.1l0,0h0v0h0.1v0.1
		h0v0h0.1l0.1,0.1h0v0.1h0v0v0h0.1v0.1h0.1c0,0.1,0,0,0,0.1c0.1,0,0.6,0.1,0.7,0.1V101c0,0,0.3-0.1,0.4-0.1v-0.1
		c0-0.1,0.1-0.1,0.1-0.1c-0.1,0.1,0,0.1,0.1,0l0,0c0-0.1,0-0.1,0-0.1c0,0.1,0,0.1,0.1,0l0.1,0v-0.1l0,0c0,0,0-0.3,0-0.3l0,0v-0.5
		l0,0v-0.1l0,0v-0.2h-0.1v-0.1h0v-0.2h0v-0.1h0v-0.1l0,0c0,0,0,0-0.1,0l0,0c0-0.2-0.4-0.3-0.4-0.3v0c-0.1,0-0.8,0-0.8,0v0
		c0,0,0,0-0.1,0l0,0c0,0-0.2,0-0.2,0.1h-0.2l0,0v0l0,0v0.1H133v0h0l0,0l0,0v0h0v0h0l0,0.1v0h-0.1c0.1,0,0,0,0,0.1h-0.1
		c0.1,0,0,0,0,0.1l0,0c0,0,0,0,0,0.1L132.6,99.2l0.1,0.3L132.6,99.2L132.6,99.2z M105,159.7L105,159.7c-0.1,0.1-0.2,0.1-0.3,0.2
		c-0.1,0-0.2,0-0.6,0c-0.2-0.1-0.4-0.1-0.5,0c-0.1,0-0.4,0.1-0.6,0.3c-0.3,0.2-0.8,0.5-1.5,0.8l-0.3,0.3c-1.8,0.9-2.8,1.6-3.2,1.9
		c0,0,0,0-0.1,0c-0.5,0.3-0.9,0.4-1.4,0.1c-0.2-0.2-0.4-0.4-0.5-0.6c-0.2-0.2-0.2-0.4-0.3-0.6c-0.1-0.3-0.1-0.8,0-1.3
		c0-0.5,0.2-1.4,0.5-2.7c0.1-0.3,0.2-0.8,0.3-1.4c0.2-0.8,0.4-1.4,0.3-1.6c-0.1-0.1-0.1-0.2-0.2-0.3c0,0,0,0-0.1-0.1
		c0-0.1-0.1-0.2-0.1-0.2c0-0.1,0-0.2,0.1-0.3c0.2-0.2,0.5-0.3,0.9-0.2c0.4,0.1,0.9,0.4,1.6,0.9c0.8,0.5,1.3,0.8,1.5,1.2
		c0.3,0.2,0.3,0.5,0.1,0.8c0,0.1-0.1,0.1-0.2,0.2c-0.1,0-0.2,0-0.3,0c0,0-0.1,0-0.1-0.1c-0.2-0.1-0.3,0-0.5,0.1
		c-0.1,0.1,0,0.3,0.2,0.5c0.2,0.2,0.5,0.5,1.1,0.8c0.4,0.3,0.7,0.5,0.9,0.5c0.2,0,0.4,0,0.5-0.1c0.1-0.1,0.1-0.2,0.1-0.2
		c0-0.1-0.1-0.1-0.1-0.3c-0.1-0.1-0.2-0.2-0.2-0.3c0-0.1,0-0.1,0.1-0.3c0.2-0.2,0.5-0.2,0.7-0.1c0.4,0.1,0.7,0.3,1.2,0.6
		c0.5,0.3,0.8,0.6,1.1,0.8C105.2,159.3,105.2,159.5,105,159.7L105,159.7L105,159.7z M100.4,160l-1.5-1c-0.1,0.6-0.2,0.9-0.2,1.3
		c0,0.3,0,0.4,0,0.5c0,0,0.2,0,0.5-0.1C99.5,160.6,99.9,160.4,100.4,160L100.4,160z M110.3,164.3c0-0.3,0.1-0.7,0.2-1
		c0-0.3,0.1-0.5,0.1-0.6c0-0.1-0.1-0.2-0.1-0.2s-0.1-0.1-0.2-0.1c-0.3-0.2-0.4-0.5-0.4-0.6c0-0.3,0.3-0.4,0.6-0.4
		c0.3,0,0.8,0.1,1.5,0.2c0.8,0.1,1.3,0.4,1.6,0.5c0.3,0.2,0.5,0.3,0.4,0.6c0,0.1-0.2,0.3-0.5,0.5c0,0,0,0-0.1,0
		c-0.1,0-0.2,0.2-0.3,0.6c-0.1,0.5-0.2,1-0.3,1.8c0,0.1,0,0.2,0,0.3c-0.1,0.8-0.1,1.4-0.1,1.5c0,0.2,0,0.4,0,0.5c0,0,0.1,0,0.2,0
		c0.2,0.2,0.3,0.4,0.3,0.6c0,0.1-0.2,0.3-0.4,0.3c-0.2,0-0.7,0-1.1-0.1c0,0-0.3-0.1-0.5-0.1c-0.2,0-0.5-0.1-0.6-0.1
		c-0.2,0-0.7-0.1-1.2-0.2c-0.4,0-0.8-0.1-0.9-0.1c-0.9-0.2-1.7-0.6-2.2-0.9c-0.4-0.4-0.6-0.9-0.6-1.5c0-0.2,0.1-0.6,0.2-0.6
		c0.1-0.2,0.5-0.3,0.7-0.5c0,0,0.1,0,0.2-0.1c0.1,0,0.4-0.1,0.4-0.2c0,0-0.1-0.1-0.4-0.2c-0.2-0.1-0.5-0.2-0.5-0.2
		c-0.2-0.2-0.5-0.5-0.6-0.7c0-0.4-0.2-0.7-0.2-1.1c0,0,0-0.1,0-0.2c0-0.3-0.1-0.6-0.2-0.6c0,0,0,0-0.1,0c-0.3-0.1-0.5-0.5-0.5-0.6
		c0-0.3,0.2-0.5,0.6-0.5c0.3-0.1,0.9,0,1.4,0c0.4,0.1,0.7,0.2,0.9,0.3c0.2,0.1,0.5,0.3,0.6,0.5c0.2,0.2,0.4,0.8,0.6,1.5
		c0,0,0,0,0,0.1c0,0,0,0.1,0,0.1c0.1,0.9,0.5,1.4,0.8,1.5c0.1,0,0.2,0,0.2,0C110.3,164.3,110.3,164.3,110.3,164.3L110.3,164.3
		L110.3,164.3z M110.2,165.5c-0.1,0-0.2,0-0.2,0l-0.1-0.1c-0.3,0-0.6,0.1-0.7,0.2c-0.1,0.1-0.2,0.3-0.3,0.7
		c-0.1,0.2,0.1,0.5,0.2,0.6c0.1,0.2,0.2,0.3,0.5,0.3c0.2,0,0.2,0,0.3,0c0-0.1,0.1-0.4,0.1-0.6c0-0.2,0.1-0.3,0.1-0.5
		c0-0.1,0-0.2,0-0.3C110.2,165.7,110.2,165.6,110.2,165.5L110.2,165.5z M125.9,153.6L125.9,153.6c0.1,0.1,0.1,0.2,0,0.3
		c0,0.1-0.2,0.2-0.4,0.5c-0.3,0.2-0.4,0.4-0.5,0.4c-0.1,0.1-0.1,0.5-0.1,0.7c0,0.2-0.2,0.8-0.2,1.7c0,0.1,0,0.3,0,0.4
		c-0.1,0.9-0.1,1.9-0.2,2.5c0,0.6-0.1,1.1,0,1.3c0,0,0,0,0,0c0,0.6-0.2,1.1-0.9,1.4c-0.3,0.2-0.6,0.2-0.9,0.2c-0.3,0-0.6,0.1-0.8,0
		c-0.3,0-0.8-0.2-1.2-0.5c-0.2-0.1-0.6-0.4-0.9-0.6c-0.2-0.3-0.8-0.6-1.2-0.9c-0.2-0.2-0.6-0.4-1-0.8c-0.5-0.4-0.9-0.8-1.2-0.8
		c0,0-0.2,0-0.3,0c-0.1,0-0.1,0-0.1,0c-0.1,0-0.2,0-0.3,0c-0.1,0-0.1-0.1-0.1-0.1c-0.1-0.2,0.1-0.5,0.4-0.8c0.2-0.2,0.8-0.6,1.6-1
		c0.8-0.4,1.5-0.9,1.9-0.9c0.4-0.2,0.8-0.1,0.9,0.2c0,0,0,0.1,0,0.2c0,0,0,0.2-0.1,0.3c0,0-0.1,0-0.2,0.1c-0.1,0.1-0.2,0.3-0.2,0.4
		c0,0.1,0.2,0.1,0.5,0c0.3-0.1,0.7-0.3,1.5-0.7c0.5-0.2,0.9-0.5,1-0.7c0.2-0.2,0.3-0.2,0.3-0.4c0-0.1-0.2-0.2-0.2-0.2
		c0,0-0.1,0.1-0.3,0.1c-0.2,0.1-0.4,0.1-0.4,0.1c-0.1,0-0.1-0.1-0.2-0.1c-0.1-0.2,0-0.5,0.3-0.7c0.2-0.3,0.7-0.5,1.4-0.9
		c0.7-0.3,1.2-0.5,1.6-0.7C125.6,153.3,125.8,153.3,125.9,153.6L125.9,153.6L125.9,153.6z M122.9,157.9c-0.6,0.3-1.3,0.6-1.9,1
		c0.4,0.3,0.8,0.5,1,0.7c0.2,0.1,0.5,0.2,0.6,0.2c0,0,0.2-0.3,0.2-0.5C122.8,159,122.8,158.5,122.9,157.9L122.9,157.9z M140.1,146.3
		c-0.4-0.2-0.9-0.6-1.2-0.8c-0.1,0-0.2-0.1-0.2-0.1s-0.2,0.1-0.2,0.1c-0.2,0.3-0.3,0.5-0.2,0.7c0,0.2,0.1,0.5,0.4,0.7
		c0.3,0.2,0.6,0.3,0.8,0.3c0.2-0.1,0.5-0.2,0.7-0.5c0,0,0.1-0.2,0.1-0.2C140.2,146.5,140.1,146.5,140.1,146.3
		C140.1,146.4,140.1,146.4,140.1,146.3L140.1,146.3L140.1,146.3z M137.5,144.5c-0.2-0.1-0.5-0.3-0.7-0.4c-0.1-0.1-0.3-0.2-0.4-0.3
		c-0.1-0.1-0.3-0.1-0.4-0.1c0,0-0.1,0.2-0.2,0.2c-0.2,0.2-0.2,0.4-0.2,0.7c0,0.2,0.2,0.5,0.5,0.7c0.2,0.1,0.5,0.3,0.7,0.1
		c0.2,0,0.6-0.2,0.7-0.5c0.1-0.1,0.2-0.3,0.1-0.3C137.6,144.7,137.5,144.5,137.5,144.5L137.5,144.5z M134,144.4
		c0.5-0.6,1.1-1.2,1.5-1.9c0.5-0.6,1.2-1.3,1.6-1.9c0.2-0.2,0.4-0.6,0.5-0.6c0.2-0.1,0.5,0,0.6,0c0,0,0.1,0.1,0.1,0.2
		c0,0.1,0.1,0.1,0.1,0.2c-0.1,0.1-0.1,0.2-0.1,0.3c0,0.1,0.1,0.3,0.2,0.3c0.1,0.1,0.4,0.5,0.7,0.8c0.4,0.3,0.9,0.6,1.5,0.9
		c0.3,0.1,0.4,0.4,0.6,0.6c0.4,0.2,0.7,0.3,0.8,0.4c0.2,0,0.3,0.1,0.4,0.1c0,0,0.1-0.1,0.2-0.1c0.3-0.2,0.6-0.1,0.8,0
		c0.2,0,0.2,0.2,0.2,0.5c0,0.2-0.2,0.5-0.5,0.8c-0.1,0.1-0.3,0.4-0.6,0.7c-0.2,0.3-0.5,0.6-0.6,0.7c-0.3,0.3-0.6,0.7-0.9,1.1
		c-0.4,0.3-0.7,0.7-0.7,0.8c-0.7,0.8-1.4,1.3-2,1.5c-0.5,0.2-1.1,0.2-1.6-0.3c-0.1-0.1-0.2-0.4-0.4-0.5c-0.1-0.1-0.1-0.4-0.1-0.6
		c0,0,0-0.1,0-0.3c0-0.1,0-0.3,0-0.3c-0.1,0-0.2,0-0.4,0.1c-0.1,0.1-0.2,0.1-0.3,0.2c-0.3,0.2-0.6,0.3-0.9,0.2
		c-0.2-0.1-0.6-0.2-0.8-0.3c-0.4-0.5-0.8-0.9-0.7-1.6C133.2,145.7,133.5,145.1,134,144.4L134,144.4z M145.1,130L145.1,130
		c0.1,0,0.2,0.2,0.2,0.2c0,0.1,0,0.3-0.1,0.5c-0.1,0.2-0.1,0.5-0.1,0.5c0.1,0.1,0.2,0.3,0.3,0.7c0.1,0.2,0.3,0.8,0.8,1.4
		c0,0.1,0.1,0.2,0.2,0.3c0.6,0.9,0.9,1.8,1.2,2.2c0.3,0.6,0.6,0.9,0.7,1c0,0-0.1,0,0,0.1c0.3,0.4,0.5,0.9,0.2,1.4
		c-0.2,0.4-0.5,0.6-0.6,0.7c-0.2,0.2-0.4,0.4-0.6,0.4c-0.2,0.1-0.7,0.1-1.3,0.1c-0.3,0-0.6-0.1-1.2-0.1c-0.4,0-1-0.1-1.7-0.2
		c-0.4,0-0.9,0-1.4-0.1c-0.9-0.1-1.5-0.3-1.9-0.2c-0.1,0-0.2,0.1-0.3,0.2c-0.1,0.1-0.1,0.1-0.1,0.1c0,0.1-0.2,0.1-0.2,0.1
		c-0.1,0-0.3,0-0.4,0c-0.3-0.1-0.3-0.6-0.1-1c0.1-0.5,0.6-1.2,1-2c0.6-0.9,1.1-1.6,1.4-1.9c0.4-0.3,0.7-0.3,0.9-0.1
		c0.1,0.1,0.1,0.1,0.2,0.2c0,0,0,0.1,0,0.3c0,0,0,0.1,0,0.2c-0.1,0.2-0.1,0.4,0,0.5c0.1,0.1,0.3-0.1,0.5-0.2
		c0.2-0.2,0.6-0.6,0.9-1.3c0.3-0.4,0.4-0.8,0.5-1c0-0.2,0-0.4-0.1-0.5c0,0,0-0.1-0.1-0.1c-0.1,0-0.2,0.1-0.3,0.3
		c-0.1,0.1-0.2,0.1-0.3,0.1c-0.1,0-0.2,0-0.4,0c-0.2-0.1-0.2-0.4-0.1-0.8c0.1-0.2,0.3-0.8,0.7-1.3c0.3-0.5,0.6-0.9,0.9-1.1
		C144.7,130,144.9,129.9,145.1,130L145.1,130L145.1,130z M145.3,134.8c-0.3,0.6-0.6,1.2-1.1,1.7c0.6,0.1,1,0.2,1.3,0.2
		c0.3,0,0.5-0.1,0.5-0.1c0.1-0.1,0-0.3-0.1-0.6C145.9,135.9,145.7,135.3,145.3,134.8L145.3,134.8z M148.4,103.9L148.4,103.9
		c0.1,0.1,0.2,0.1,0.3,0.1c0.1,0.1,0.3,0.4,0.3,0.7c0,0.2,0.1,0.5,0.2,0.5c0.1,0.1,0.4,0.3,0.6,0.5c0.2,0.2,0.8,0.6,1.5,1
		c0.1,0.1,0.3,0.2,0.4,0.3c0.8,0.6,1.5,1.1,1.9,1.4c0.4,0.2,0.8,0.4,0.9,0.4c0,0,0,0.1,0,0.1c0.5,0.2,0.7,0.6,0.7,1.2
		c0,0.4-0.1,0.6-0.2,0.9c-0.1,0.3-0.1,0.5-0.2,0.7c-0.2,0.2-0.5,0.5-0.9,0.8c-0.1,0.1-0.4,0.4-0.8,0.6c-0.4,0.2-0.9,0.6-1.5,1
		c-0.2,0.2-0.7,0.5-1.1,0.8c-0.8,0.5-1.4,0.8-1.5,1c0,0.1-0.2,0.3-0.2,0.5v0c-0.1,0.2-0.1,0.3-0.2,0.4c-0.1,0.1-0.2,0.1-0.3,0.1
		c-0.3,0-0.5-0.2-0.7-0.7c-0.1-0.5-0.2-1.3-0.2-2.4c0-1.2,0.1-2.1,0.2-2.5c0.1-0.6,0.3-0.8,0.6-0.8c0.1,0,0.2,0,0.2,0.1
		c0.1,0,0.2,0.1,0.3,0.3v0.2c0,0.3,0.2,0.4,0.3,0.4c0.1,0,0.2-0.1,0.3-0.5c0-0.3,0.1-0.9,0.1-1.7c0-0.6,0-1-0.1-1.3
		c0-0.2-0.3-0.3-0.4-0.3c-0.1,0-0.2,0-0.2,0.1c-0.1,0-0.1,0.1-0.2,0.3c0,0.2-0.1,0.4-0.1,0.4c-0.1,0-0.2,0.1-0.4,0.1
		c-0.2,0-0.5-0.3-0.5-0.7c-0.1-0.4-0.1-1-0.1-1.8c0-0.8,0.1-1.4,0.2-1.8C147.9,104.1,148.1,103.9,148.4,103.9L148.4,103.9
		L148.4,103.9z M151.1,108.7c0,0.7,0,1.5,0,2.3c0.5-0.3,0.8-0.6,1.1-0.8c0.2-0.1,0.4-0.2,0.4-0.3s-0.2-0.3-0.3-0.5
		C152.1,109.3,151.7,109.1,151.1,108.7L151.1,108.7z M149.9,95l3.2,3.9c0.1,0.1,0.1,0.2,0.2,0.3c0.1,0,0.1,0.1,0.1,0.1
		c0.1,0,0.2,0,0.2-0.1c0,0,0-0.3,0-0.6c0-0.4,0-0.7-0.1-0.8c-0.1-0.3-0.2-0.4-0.3-0.6c-0.1-0.1-0.2-0.2-0.2-0.3
		c-0.4-0.3-0.6-0.7-0.6-1.1c0-0.3,0.1-0.5,0.2-0.6c0.1-0.1,0.3-0.1,0.5,0c0.2,0.1,0.5,0.2,0.7,0.5c0.3,0.2,0.5,0.5,0.8,0.8
		c0.1,0.2,0.2,0.4,0.4,0.6c0.1,0.2,0.1,0.3,0.1,0.5c0,0,0,0.2,0,0.3c0,0.1,0,0.2,0,0.2v5c0,0.5-0.1,0.8-0.1,0.9
		c-0.1,0.2-0.2,0.3-0.4,0.2c-0.3,0-0.9-0.7-1.9-2c-0.4-0.5-0.8-0.9-1-1.2l-2.2-2.7c-0.1-0.1-0.2-0.2-0.2-0.3c0,0-0.1,0-0.2-0.1
		c0,0-0.1,0-0.2,0.2c0,0.1,0,0.3,0,0.6c0,0.3,0,0.6,0,0.8c0.1,0.2,0.2,0.4,0.3,0.6c0,0,0.1,0.2,0.3,0.3c0.3,0.4,0.5,0.7,0.5,1
		c0,0.2-0.1,0.4-0.2,0.5c-0.2,0.1-0.4,0.1-0.6,0c-0.5-0.2-1-0.4-1.4-0.9c-0.4-0.5-0.6-0.8-0.6-1.2c0-0.1,0-0.2,0.1-0.4
		c0-0.2,0.1-0.4,0.1-0.7v-5c0-0.5,0.1-0.9,0.1-1.1c0.1-0.2,0.3-0.2,0.5-0.2c0.1,0.1,0.7,0.6,1.6,1.8L149.9,95L149.9,95z M71.2,112.1
		h0.5c0.3,0,0.5,0,0.6,0c0.1-0.1,0.1-0.1,0.1-0.2c0-0.3-0.1-0.5-0.4-0.7c-0.2-0.2-0.5-0.3-0.9-0.3c-0.4,0-0.7,0.1-1,0.3
		c-0.2,0.1-0.4,0.4-0.4,0.7c0,0.1,0.1,0.2,0.2,0.2c0.2,0.1,0.4,0.1,0.9,0.1H71.2L71.2,112.1z M73.9,112c0.1,0,0.1,0,0.2,0
		c0.1,0,0.1-0.1,0.2-0.1c0.3,0,0.6,0,0.7,0c0.1,0,0.2-0.1,0.3-0.2c0,0,0.1-0.1,0.1-0.2c0.2-0.2,0.3-0.4,0.5-0.4
		c0.3,0,0.5,0.2,0.7,0.5c0.1,0.3,0.2,0.9,0.2,1.6c0,0.9,0,1.4-0.2,1.9c-0.1,0.4-0.3,0.5-0.7,0.5c-0.2,0-0.3-0.1-0.5-0.3
		c-0.1-0.2-0.2-0.3-0.3-0.4c-0.1,0-0.4-0.1-1,0c-0.6,0-1.8-0.1-3.4-0.1c-0.3,0-0.6,0.1-0.7,0.1c-0.1,0-0.3,0.2-0.3,0.3
		c0,0,0,0.1-0.1,0.2c-0.1,0.3-0.3,0.5-0.6,0.5c-0.1,0-0.3,0-0.4-0.2c-0.1-0.2-0.2-0.5-0.2-0.9c0-0.2,0-0.3,0-0.6c0-0.2,0-0.2,0-0.4
		c0-0.2-0.1-0.6-0.1-1.2c0-0.6-0.1-1.1-0.1-1.4c0-1.2,0.3-2.1,0.7-2.6c0.4-0.6,1-0.8,2-0.8c0.9,0,1.6,0.3,2.1,0.8
		c0.5,0.6,0.8,1.4,0.8,2.5c0,0.1,0,0.3,0,0.4S73.9,111.8,73.9,112L73.9,112z M73.1,98.8h1.2c0.3,0,0.6,0,0.7,0
		c0.1-0.1,0.1-0.1,0.2-0.1c0,0,0.1-0.1,0.2-0.2c0.1-0.3,0.4-0.4,0.6-0.4c0.2,0,0.5,0.1,0.6,0.5c0.1,0.3,0.2,0.9,0.2,1.7
		c0,0.8,0,1.3-0.1,1.6c-0.1,0.4-0.4,0.5-0.6,0.5c-0.2,0-0.4-0.1-0.6-0.4c0,0-0.1-0.1-0.1-0.1c0-0.1-0.3-0.1-0.8-0.2
		c-0.6-0.1-1.3-0.1-2.1-0.1h-0.4c-0.9,0-1.5,0-1.9,0.1c-0.2,0.1-0.4,0.1-0.5,0.2c-0.1,0-0.1,0.1-0.1,0.2c-0.2,0.3-0.4,0.4-0.6,0.4
		c-0.2,0-0.4-0.1-0.5-0.4c-0.1-0.2-0.1-0.7-0.2-1.1c0-0.1,0.1-0.3,0.1-0.5c0-0.2,0-0.5,0-0.7c0-0.3-0.1-0.7-0.1-1.2
		c0-0.5,0-0.9,0-1.1c0-1,0.2-1.8,0.5-2.3c0.4-0.5,0.9-0.8,1.6-0.8c0.3,0,0.6,0,0.9,0.2c0.2,0.1,0.4,0.4,0.6,0.6
		c0,0.1,0.1,0.2,0.2,0.3c0.1,0.2,0.2,0.2,0.2,0.2c0.1,0,0.1-0.1,0.2-0.4c0.1-0.2,0.2-0.3,0.2-0.5c0.2-0.3,0.4-0.5,0.6-0.6
		c0.3-0.1,0.6-0.2,1.1-0.3c0,0,0.1,0,0.2,0c0.5-0.1,0.7-0.2,0.7-0.3c0,0,0,0,0-0.1c0.1-0.4,0.4-0.6,0.6-0.6c0.2,0,0.5,0.2,0.7,0.5
		c0.1,0.3,0.2,0.8,0.2,1.5c0,0.3,0,0.6-0.1,0.9c0,0.3-0.1,0.5-0.2,0.7c-0.3,0.3-0.7,0.6-1.5,0.8c0,0,0,0,0,0c-0.1,0-0.1,0-0.3,0.1
		c-0.9,0.2-1.4,0.6-1.4,1c0,0,0,0.1,0,0.2C72.9,98.7,73,98.7,73.1,98.8L73.1,98.8L73.1,98.8z M71.5,98.9c0.1-0.1,0.1-0.2,0.1-0.2
		v-0.1c0-0.3-0.1-0.6-0.3-0.6c-0.2-0.2-0.5-0.2-0.9-0.2c-0.3,0-0.6,0.1-0.7,0.2c-0.2,0.1-0.3,0.4-0.3,0.6c0,0.2,0.1,0.3,0.2,0.3
		c0.1,0.1,0.4,0.1,0.8,0h0.5c0.2,0,0.3,0,0.4,0C71.4,98.9,71.5,98.9,71.5,98.9L71.5,98.9z M147.8,81.7L147.8,81.7
		c0.1,0,0.2,0,0.4,0.1c0,0.1,0.1,0.2,0.2,0.5c0,0.2,0.1,0.3,0.2,0.4c0,0.1,0.3,0.2,0.5,0.3c0.3,0.2,0.8,0.4,1.5,0.7l0.3,0.2
		c1.8,0.8,2.9,1.3,3.3,1.4c0,0,0,0,0,0c0.6,0.1,0.8,0.4,0.8,1c0,0.3-0.1,0.6-0.1,0.8c-0.1,0.3-0.1,0.5-0.3,0.6
		c-0.2,0.2-0.6,0.5-0.9,0.8c-0.5,0.3-1.3,0.7-2.5,1.3c-0.3,0.2-0.7,0.3-1.2,0.6c-0.8,0.3-1.3,0.6-1.5,0.7c0,0.1-0.1,0.2-0.1,0.3
		c0,0,0,0.1,0,0.1c0,0.1,0,0.2-0.1,0.2c-0.1,0-0.2,0-0.3,0c-0.3,0-0.5-0.1-0.6-0.5c-0.1-0.4-0.2-1-0.2-1.9c0-0.9,0-1.6,0.1-1.9
		c0.1-0.5,0.3-0.6,0.5-0.6c0.1,0,0.2,0,0.3,0.1c0.1,0,0.1,0.1,0.2,0.2c0,0,0,0,0,0.1c0,0.2,0.1,0.3,0.3,0.3c0.1,0,0.2-0.1,0.3-0.4
		c0.1-0.2,0.1-0.7,0.1-1.4c0-0.5,0-0.8-0.1-1c-0.1-0.1-0.2-0.3-0.3-0.3c-0.1,0-0.2,0-0.2,0.1c0,0,0,0.1-0.1,0.2
		c0,0.2-0.1,0.3-0.2,0.4c-0.1,0.1-0.1,0.1-0.3,0.1c-0.2,0-0.4-0.2-0.5-0.5c-0.1-0.3-0.2-0.8-0.2-1.3c0-0.6,0.1-1.1,0.2-1.4
		C147.4,81.8,147.6,81.7,147.8,81.7L147.8,81.7L147.8,81.7z M150.5,85.3v1.8c0.5-0.2,0.9-0.4,1.2-0.6c0.2-0.1,0.4-0.2,0.4-0.3
		c0-0.1-0.2-0.2-0.4-0.3C151.5,85.7,151.1,85.5,150.5,85.3L150.5,85.3z M150.3,75.1l-1,0c-0.4,0-0.6,0-0.8,0c-0.1,0-0.1,0.1-0.2,0.1
		c-0.1,0-0.1,0.1-0.2,0.2c-0.1,0.3-0.3,0.5-0.5,0.5c-0.2,0-0.5-0.2-0.6-0.5c-0.1-0.3-0.1-0.9-0.1-1.7c0-0.8,0-1.4,0.1-1.7
		c0.1-0.4,0.4-0.6,0.6-0.6c0.2,0,0.4,0.1,0.6,0.4c0,0,0,0.1,0.1,0.1c0.1,0,0.2,0.1,0.8,0.2c0.5,0,1.1,0,2,0h0.4c0.9,0,1.5,0,1.8,0
		c0.3-0.1,0.4-0.1,0.5-0.2c0,0,0-0.1,0-0.2c0.2-0.3,0.4-0.4,0.6-0.4c0.2,0,0.4,0,0.4,0.4c0.1,0.2,0.2,0.6,0.2,1.1c0,0.1,0,0.2,0,0.5
		c0,0.2,0,0.5,0,0.7c0,0.3,0,0.7,0.1,1.2c0,0.5,0,0.8,0,1.1c0,1-0.2,1.7-0.6,2.3c-0.3,0.5-0.8,0.9-1.5,0.9c-0.3,0-0.6-0.1-0.8-0.2
		c-0.2-0.1-0.5-0.4-0.7-0.6c0-0.1-0.1-0.1-0.1-0.2c0-0.2-0.2-0.3-0.2-0.3c-0.1,0-0.1,0.1-0.2,0.4c-0.1,0.2-0.1,0.4-0.2,0.5
		c-0.1,0.2-0.3,0.5-0.6,0.6c-0.2,0.1-0.6,0.2-0.9,0.3c0,0-0.1,0-0.2,0c-0.4,0.1-0.7,0.2-0.7,0.3c0,0,0,0,0,0.1
		c-0.1,0.4-0.3,0.6-0.6,0.6c-0.2,0-0.4-0.2-0.6-0.6c-0.1-0.3-0.2-0.8-0.3-1.4c0-0.3,0-0.7,0.1-0.9c0.1-0.2,0.1-0.5,0.2-0.7
		c0.3-0.3,0.8-0.6,1.5-0.8c0,0,0,0,0.1,0c0-0.1,0.1-0.1,0.2-0.1c0.9-0.2,1.4-0.6,1.4-1c0-0.1,0-0.2,0-0.2
		C150.4,75.2,150.3,75.1,150.3,75.1L150.3,75.1L150.3,75.1z M151.8,75c-0.1,0.1-0.1,0.2-0.1,0.2c0,0,0,0.1,0,0.2
		c0,0.2,0.1,0.5,0.3,0.6c0.2,0.2,0.4,0.2,0.8,0.2c0.3,0,0.6-0.1,0.7-0.2c0.2-0.1,0.2-0.3,0.2-0.6c0-0.2,0-0.3-0.1-0.4
		c-0.1-0.1-0.4-0.1-0.8-0.1h-0.5c-0.2,0-0.2,0-0.4,0C151.9,75,151.9,75,151.8,75L151.8,75z M119.3,70.3c0-0.5,0.5-0.8,1.5-0.8
		l2.8-3.7c-0.5-0.1-0.9-0.3-1.1-0.7c0.2-0.5,0.9-0.7,2.3-0.7c1,0,1.7,0.1,2.1,0.2l3.4,3.3l1.7-1.9l-0.1-0.9
		c-0.2-0.5,0.3-0.8,1.6-0.7c0.9-0.1,1.6,0.1,1.9,0.6l-0.4,0.9l3,3.4c0.8,0.1,1.3,0.5,1.5,0.9c0.1,0.1-0.6,0.8-1.7,0.7
		c-0.8,0-3.4,0-3.7,0c-0.4,0-1.2-0.4-1.2-0.6c0-0.4,0.2-0.7,0.7-0.9l-1.3-1.4l-3,2.8l-4.3-4.2l-2,2.8c0.6,0.4,0.8,0.8,0.9,0.8
		c0.1,0.1-0.3,0.5-0.3,0.5h-3.9L119.3,70.3L119.3,70.3z M145.5,65.1c0,0.2-0.1,0.4-0.4,0.5c-0.1,0.1-0.2,0.1-0.2,0.2
		c-0.1,0.1-0.2,0.2-0.2,0.6c0,0.3,0,0.9,0,1.7c0,0.2,0,0.4,0,0.6c0,0.2,0,0.4,0,0.5c0,0.3,0,0.5,0.1,0.7c0.1,0.1,0.1,0.1,0.2,0.2
		c0,0,0.1,0.1,0.2,0.1c0.3,0.1,0.4,0.3,0.4,0.5c0,0.2-0.1,0.4-0.5,0.6c-0.3,0.1-1,0.2-1.7,0.2c-0.8,0-1.4,0-1.7-0.1
		c-0.4-0.1-0.6-0.3-0.6-0.6c0-0.1,0-0.3,0.3-0.4c0.2-0.1,0.3-0.2,0.3-0.2c0.1-0.1,0.1-0.3,0.1-0.9c0-0.5,0-1.3-0.1-2.4
		c0-0.3,0-0.6,0-0.7c0-0.1-0.1-0.2-0.2-0.3c0,0-0.1-0.1-0.2-0.1c-0.2-0.2-0.4-0.3-0.4-0.5c0-0.3,0.2-0.5,0.5-0.6
		c0.4-0.1,1-0.2,1.8-0.2c0.7-0.1,1.2,0.1,1.6,0.2C145.2,64.7,145.4,64.9,145.5,65.1L145.5,65.1z M82.5,68.9c0,0,0,0.1,0,0.1
		c0,0.1,0,0.1,0,0.1c0,0.2,0,0.5,0.1,0.6c0.1,0.1,0.1,0.2,0.3,0.2c0,0,0.1,0.1,0.2,0.1c0.3,0.1,0.5,0.2,0.5,0.4
		c0,0.2-0.3,0.4-0.7,0.6c-0.4,0.1-1.2,0.1-2.1,0.1c-1,0-1.8-0.1-2.3-0.2c-0.4-0.1-0.6-0.3-0.6-0.6c0-0.2,0.1-0.3,0.3-0.5
		c0.2-0.1,0.4-0.2,0.5-0.2c0.1,0,0.1-0.3,0.1-0.8c0.1-0.5,0.1-1.4,0.1-2.7c0-0.3,0-0.5-0.1-0.6c-0.1-0.1-0.2-0.2-0.4-0.3
		c0,0-0.1,0-0.2,0c-0.4-0.1-0.6-0.2-0.6-0.4c0-0.2,0.1-0.3,0.3-0.4c0.2,0,0.6-0.1,1.1-0.1c0.2,0,0.5,0,0.7,0
		c0.2,0.1,0.4,0.1,0.5,0.1c0.2,0,0.8-0.1,1.5-0.1c0.8,0,1.4,0,1.8,0c1.4,0,2.6,0.1,3.2,0.5c0.7,0.4,1.1,0.9,1.1,1.6
		c0,0.7-0.4,1.3-1.1,1.8c-0.8,0.3-1.9,0.6-3.2,0.6c-0.1,0-0.3,0-0.5,0C82.8,68.9,82.6,68.9,82.5,68.9L82.5,68.9z M82.4,66.7v0.5
		c0,0.3,0,0.5,0,0.5c0,0.1,0.2,0.1,0.3,0.1c0.3,0,0.6-0.1,0.9-0.2c0.2-0.2,0.4-0.5,0.4-0.8c0-0.3-0.1-0.6-0.4-0.8
		c-0.2-0.2-0.5-0.3-0.8-0.3c-0.2,0-0.3,0.1-0.3,0.1c0,0.1,0,0.3,0,0.7V66.7L82.4,66.7z M103.7,68.4l0,0.9c0,0.3,0,0.5,0,0.6
		c0,0.1,0,0.1,0.1,0.2c0.1,0,0.1,0.1,0.2,0.1c0.3,0.1,0.5,0.3,0.5,0.5c0,0.2-0.2,0.4-0.5,0.5c-0.3,0.1-0.9,0.1-1.8,0.1
		c-0.8,0-1.5,0-1.9-0.1c-0.4-0.1-0.5-0.3-0.5-0.5c0-0.1,0.1-0.3,0.4-0.5c0.1,0,0.1,0,0.1-0.1c0.1,0,0.2-0.2,0.2-0.7
		c0-0.5,0.1-1.1,0-1.7v-0.3c0-0.7,0-1.2-0.1-1.5c0-0.2-0.1-0.3-0.2-0.4c-0.1,0-0.1-0.1-0.2-0.1c-0.3-0.1-0.4-0.2-0.5-0.4
		c0-0.2,0.1-0.4,0.4-0.4c0.3-0.1,0.7-0.2,1.2-0.2c0.1,0,0.3,0,0.6,0c0.3,0,0.5,0,0.7,0c0.3,0,0.8-0.1,1.4-0.1c0.5,0,0.9,0,1.1,0
		c1.1,0,1.9,0.2,2.6,0.4c0.6,0.3,0.9,0.7,0.9,1.3c0,0.2,0,0.5-0.2,0.7c-0.1,0.2-0.4,0.3-0.6,0.5c-0.1,0.1-0.2,0.1-0.3,0.2
		c-0.2,0-0.3,0.1-0.3,0.2c0,0,0,0.1,0.4,0.1c0.3,0.1,0.4,0.1,0.6,0.2c0.2,0.1,0.5,0.3,0.6,0.4c0.1,0.3,0.3,0.6,0.3,0.9
		c0,0,0,0.1,0,0.2c0.2,0.3,0.3,0.5,0.4,0.5c0,0,0,0,0.1,0c0.5,0.1,0.7,0.3,0.7,0.5c0,0.2-0.2,0.4-0.6,0.5c-0.3,0.1-0.9,0.2-1.6,0.2
		c-0.4,0-0.7,0-1-0.1c-0.2,0-0.5-0.2-0.8-0.3c-0.3-0.2-0.6-0.6-0.8-1.2c0,0,0,0,0-0.1c0-0.1,0-0.1-0.1-0.2c-0.3-0.7-0.7-1.1-1.2-1.1
		c-0.1,0-0.1,0-0.1,0C103.8,68.4,103.7,68.4,103.7,68.4L103.7,68.4L103.7,68.4z M103.6,67.2c0.1,0,0.2,0,0.2,0c0.1,0,0.1,0,0.2,0
		c0.3,0,0.6-0.1,0.7-0.2c0.1-0.1,0.2-0.4,0.2-0.7c0-0.3-0.2-0.5-0.2-0.6c-0.1-0.2-0.4-0.2-0.7-0.2c-0.2,0-0.4,0-0.4,0.2
		c-0.1,0.1-0.1,0.3-0.1,0.6l0,0.4c0,0.2,0,0.3,0,0.3C103.6,67,103.6,67.1,103.6,67.2L103.6,67.2z M88.7,66.6
		c0.2-0.5,0.4-0.9,0.8-1.3c0.4-0.5,0.9-0.8,1.5-1c0.4-0.3,1-0.4,1.6-0.4c0.6,0,1.3,0,1.9,0.2c0.7,0.2,1.2,0.4,1.7,0.7
		c0.5,0.3,0.9,0.7,1.2,1.2c0.3,0.4,0.5,0.9,0.5,1.4c0.1,0.5,0,1-0.2,1.5c-0.2,0.6-0.5,1.1-0.9,1.5c-0.3,0.4-0.8,0.7-1.4,0.9
		c-0.5,0.2-1,0.3-1.6,0.3c-0.6,0.1-1.2,0-1.8-0.2c-0.5-0.1-0.9-0.2-1.4-0.5c-0.3-0.2-0.7-0.5-1-0.7c-0.5-0.5-0.8-1.1-1.1-1.8
		C88.4,67.9,88.4,67.2,88.7,66.6L88.7,66.6z M92.1,66.4C92.1,66.7,92,67,92,67.3c0,0.3,0,0.7,0,1.1c0,0.5,0.1,0.9,0.4,1.1
		c0.1,0.3,0.4,0.5,0.6,0.5c0.3,0.1,0.6,0,0.7-0.1c0.2-0.1,0.4-0.3,0.6-0.7c0-0.2,0.1-0.5,0.2-0.8c0-0.4,0-0.7-0.1-1
		c-0.1-0.5-0.1-1-0.4-1.3c-0.1-0.3-0.4-0.5-0.7-0.6c-0.3-0.1-0.6,0-0.8,0.1C92.4,65.9,92.3,66.1,92.1,66.4L92.1,66.4z M73.4,75.9
		l-1.9,0.7c-0.1,0-0.1,0-0.1,0c-1.1,0.5-1.7,0.7-1.8,0.8c0,0.1,0,0.2,0,0.2C69.4,77.9,69.2,78,69,78c-0.3,0-0.6-0.2-0.8-0.5
		C68.1,77.1,68,76.6,68,76c0-0.7,0.1-1.3,0.2-1.6c0.1-0.3,0.4-0.5,0.7-0.5c0.2,0,0.4,0.1,0.5,0.3c0.1,0.1,0.2,0.2,0.2,0.2
		c0,0,0.2,0,0.6-0.1c0,0,0,0,0.1,0l1.5-0.6c0.2,0,0.3-0.1,0.3-0.1c0.1-0.1,0.1-0.1,0.1-0.2c0-0.1,0-0.2-0.1-0.2
		c-0.1,0-0.2-0.1-0.5-0.2c-0.8-0.2-1.3-0.5-1.5-0.6c-0.2-0.1-0.4-0.2-0.5-0.2c0,0-0.1,0.1-0.2,0.2c0,0.1,0,0.1-0.1,0.1
		c0,0-0.1,0.1-0.1,0.2c-0.1,0-0.1,0-0.2,0c-0.3,0-0.5-0.1-0.6-0.4C68.1,72,68,71.6,68,71.2c0-0.6,0-1.1,0.2-1.3
		c0.1-0.3,0.3-0.4,0.6-0.4c0.3,0,0.5,0.2,0.5,0.4c0,0,0,0.1,0,0.1c0.1,0.2,0.5,0.5,1.4,0.8c0.2,0.1,0.4,0.2,0.6,0.2l2,0.8
		c0.9,0.3,1.4,0.6,1.9,0.8c0.5,0.2,0.8,0.3,1,0.5c0.2,0.1,0.3,0.2,0.3,0.3c0.1,0.1,0.1,0.2,0.1,0.4c0,0.5-0.8,1.1-2.5,1.7
		C73.8,75.7,73.5,75.8,73.4,75.9L73.4,75.9z M68.3,80.7c0-0.1,0-0.2-0.1-0.3c-0.1-0.1-0.1-0.3-0.1-0.4c0-0.1,0-0.2,0.1-0.4
		c0.1,0,0.1-0.1,0.2-0.2c0.2-0.2,0.6-0.4,0.9-0.6c0.3-0.1,0.6-0.1,0.9-0.1c0.3,0,0.6,0.1,0.8,0.2c0.2,0.2,0.3,0.4,0.3,0.7
		c0,0.1-0.1,0.3-0.1,0.5c-0.2,0.1-0.3,0.3-0.6,0.4c0,0-0.1,0.1-0.2,0.2c-0.3,0.1-0.5,0.3-0.5,0.4c0,0.1,0.1,0.1,0.1,0.2
		c0,0.1,0.2,0.1,0.4,0.1h0.4c0.2,0,0.7,0,1.4,0c0.7,0.1,1.3,0.1,1.6,0.1c0.4,0,0.7-0.1,0.8-0.2c0.2,0,0.3-0.1,0.4-0.2
		c0-0.1,0-0.1,0.1-0.2c0.1-0.2,0.3-0.4,0.5-0.4c0.3,0,0.5,0.2,0.7,0.6c0.1,0.4,0.2,0.9,0.2,1.9c0,0.7-0.1,1.2-0.2,1.6
		c-0.1,0.3-0.4,0.6-0.7,0.6c-0.2,0-0.4-0.2-0.6-0.4c0-0.1,0-0.2-0.1-0.3c-0.1-0.1-0.4-0.1-1-0.3c-0.5,0-1.3,0-2.2,0h-0.5
		c-0.5,0-0.8,0-1,0c-0.1,0-0.2,0.1-0.2,0.2c0,0.1,0.1,0.3,0.4,0.5c0.1,0.1,0.2,0.1,0.2,0.1c0.2,0.2,0.4,0.4,0.6,0.6
		c0,0.2,0.1,0.3,0.1,0.5c0,0.2-0.1,0.4-0.3,0.6c-0.2,0.1-0.4,0.2-0.6,0.2c-0.2,0-0.5-0.1-0.7-0.2c-0.3-0.1-0.6-0.2-0.9-0.4
		c-0.2-0.1-0.4-0.3-0.5-0.4c-0.1-0.2-0.2-0.3-0.2-0.4c0-0.1,0-0.2,0.1-0.4c0.1-0.1,0.1-0.2,0.1-0.3V80.7L68.3,80.7z M76,92.4
		c-0.3,0-0.5-0.1-0.6-0.3c-0.1-0.1-0.1-0.2-0.2-0.2c-0.1-0.1-0.2-0.2-0.7-0.2c-0.3,0-1.1-0.1-2.1,0c-0.2,0-0.4,0-0.7,0
		c-0.3,0-0.4,0-0.6,0c-0.4,0-0.7,0-0.9,0.1c-0.2,0-0.3,0-0.3,0.2c-0.1,0-0.1,0.1-0.1,0.2c-0.2,0.3-0.3,0.4-0.6,0.4
		c-0.2,0-0.5-0.2-0.7-0.6c-0.1-0.4-0.2-0.9-0.2-1.7c0-0.8,0-1.4,0.2-1.8c0.2-0.4,0.4-0.5,0.6-0.5c0.2,0,0.5,0.2,0.6,0.3
		c0.1,0.2,0.2,0.2,0.2,0.2c0.1,0.1,0.5,0.1,1.1,0.2c0.7,0.1,1.6,0.1,3,0c0.4,0,0.7,0,0.8,0c0.1,0,0.3-0.1,0.3-0.2
		c0.1,0,0.2-0.1,0.2-0.2c0.2-0.3,0.4-0.5,0.6-0.5c0.3,0,0.5,0.3,0.7,0.6c0.1,0.4,0.2,0.9,0.2,1.7s-0.1,1.3-0.2,1.7
		C76.5,92.2,76.3,92.4,76,92.4L76,92.4z M75.9,107.5c-0.2,0-0.4-0.1-0.6-0.3c-0.1-0.1-0.2-0.2-0.2-0.2c-0.1-0.1-0.3-0.1-0.7-0.1
		c-0.3-0.1-1-0.1-2.1-0.1c-0.2,0-0.4,0-0.7,0c-0.3,0-0.5,0-0.6,0c-0.5,0-0.7,0-0.9,0.1c-0.2,0-0.3,0.1-0.4,0.1c0,0-0.1,0.1-0.2,0.2
		c-0.1,0.2-0.3,0.4-0.5,0.4c-0.3,0-0.5-0.2-0.7-0.6c-0.1-0.4-0.2-0.9-0.2-1.7c0-0.7,0-1.4,0.2-1.7c0.1-0.4,0.4-0.6,0.7-0.6
		c0.2,0,0.4,0.2,0.6,0.3c0.1,0.2,0.2,0.3,0.2,0.3c0.1,0.1,0.5,0.1,1.1,0.1c0.6,0,1.6,0,3,0c0.4,0,0.7,0,0.8,0c0.2,0,0.3-0.1,0.4-0.2
		c0.1-0.1,0.1-0.1,0.1-0.2c0.3-0.3,0.5-0.4,0.7-0.4c0.3,0,0.5,0.2,0.6,0.6c0.1,0.4,0.2,0.9,0.2,1.7c0,0.7-0.1,1.3-0.2,1.7
		C76.4,107.4,76.2,107.5,75.9,107.5L75.9,107.5z M77,119.7c0,0.7-0.1,1.4-0.2,1.9c-0.2,0.6-0.4,1-0.6,1.3c-0.3,0.2-0.5,0.4-0.8,0.5
		c-0.3,0.2-0.7,0.3-1.2,0.3c-0.2,0.1-0.5,0.1-0.6,0c-0.1-0.1-0.2-0.2-0.2-0.4c0-0.2,0.2-0.6,0.6-0.8c0.1-0.1,0.2-0.1,0.3-0.2
		c0.4-0.3,0.6-0.7,0.8-1c0.2-0.4,0.3-0.7,0.2-1.1c0-0.3,0-0.5-0.2-0.6c-0.1-0.1-0.2-0.2-0.4-0.2c-0.2,0-0.5,0.4-0.6,1.1
		c0,0.3-0.1,0.6-0.2,0.7c-0.3,0.8-0.7,1.5-1.2,2.1c-0.5,0.5-1,0.8-1.7,0.8c-0.8,0.1-1.5,0-2.1-0.6c-0.6-0.6-0.8-1.4-0.9-2.3
		c0-0.4,0.1-0.8,0.1-1.1c0.1-0.4,0.1-0.6,0.1-0.6c0-0.1,0-0.2,0-0.4c0-0.1-0.1-0.2-0.1-0.3c0-0.1,0-0.3,0.1-0.4
		c0.1-0.2,0.2-0.2,0.4-0.5c0.2-0.2,0.5-0.4,0.8-0.6c0.2-0.2,0.5-0.3,0.7-0.3c0.2-0.1,0.5,0,0.6,0.1c0.2,0.2,0.3,0.3,0.3,0.6
		c0,0.2-0.1,0.5-0.5,0.9c-0.1,0.2-0.2,0.2-0.3,0.4c-0.2,0.2-0.3,0.4-0.4,0.7c-0.1,0.2-0.2,0.5-0.2,0.7c0,0.2,0.1,0.4,0.2,0.5
		c0.1,0.1,0.2,0.1,0.4,0.1c0.4-0.1,0.7-0.6,0.9-1.6c0-0.2,0.1-0.3,0.1-0.3c0.3-0.9,0.6-1.6,1-2c0.4-0.4,0.9-0.7,1.6-0.8
		c0.9-0.2,1.6,0.1,2.2,0.7C76.7,117.7,77,118.5,77,119.7L77,119.7L77,119.7z M78.3,127.7l1.1,4.1c0.1,0.4,0.1,0.7,0,0.8
		c0,0.2-0.2,0.2-0.3,0.2c-0.2,0.1-0.4,0-0.7-0.2c0-0.1-0.2-0.2-0.2-0.2c-0.1-0.1-0.4-0.1-1,0c-0.6,0-1.2,0.2-2.5,0.5
		c-0.7,0.2-1.2,0.3-1.6,0.6c-0.2,0.1-0.5,0.1-0.6,0.3c0,0,0,0.2-0.1,0.5c0,0.3-0.2,0.4-0.5,0.4c-0.1,0.1-0.4,0.1-0.4-0.2
		c-0.2,0-0.4-0.3-0.5-0.6c0,0,0-0.4-0.2-1.1c-0.1-0.7-0.3-1.4-0.4-2c-0.3-0.9-0.6-1.7-0.8-2.5c-0.1,0-0.2-0.1-0.2-0.1
		c-0.1-0.3,0.1-0.6,0.3-0.8c0.2-0.2,0.7-0.5,1.2-0.6c0.2-0.1,0.5-0.2,0.6-0.1c0.2,0.1,0.3,0.2,0.4,0.5c0.1,0.1,0,0.5-0.2,0.6
		c-0.1,0.1-0.1,0.1-0.2,0.2c-0.1,0.2-0.2,0.5-0.3,0.7c0.1,0.3,0,0.6,0.1,1c0.1,0.4,0.3,0.6,0.4,0.8c0,0.1,0,0.1,0.2,0.2
		c0,0,0.1,0,0.3-0.1c0.3,0.1,0.6,0,0.8-0.1c0.4-0.1,0.6-0.2,0.6-0.3c0,0-0.1-0.3-0.1-0.4c-0.1-0.2-0.1-0.4-0.1-0.4
		c-0.1-0.1-0.1-0.1-0.5-0.1c0,0,0,0-0.1,0c-0.3,0.1-0.7-0.1-0.8-0.4c0-0.1,0.1-0.5,0.3-0.6c0.2-0.2,0.6-0.4,1.2-0.5
		c0.7-0.1,1.3-0.3,1.7-0.3c0.2,0,0.5,0.3,0.6,0.5c0,0.3-0.1,0.5-0.5,0.6l0,0c-0.3,0.1-0.3,0.2-0.5,0.3c0,0.1,0,0.3,0,0.4
		c0,0.3,0.2,0.4,0.2,0.5c0.2-0.1,0.4-0.1,0.7-0.2c0.6-0.2,0.8-0.2,0.9-0.3c0.3,0,0.3,0,0.3-0.2c0,0,0.1-0.2,0.1-0.3
		c0-0.1-0.1-0.4-0.1-0.7c-0.2-0.4-0.3-0.8-0.5-1c-0.2-0.3-0.4-0.5-0.8-0.6c-0.1-0.1-0.2-0.1-0.5-0.2c-0.3,0-0.5-0.3-0.5-0.4
		c-0.1-0.3-0.1-0.5,0-0.6c0.1-0.2,0.2-0.2,0.5-0.3c0.3-0.1,0.5-0.2,0.9-0.1c0.2-0.1,0.6,0,0.8,0c0.3,0.1,0.6,0.2,0.6,0.3
		c0.2-0.1,0.2,0,0.2,0.2l0,0.1C78,126.4,78.2,127.1,78.3,127.7L78.3,127.7z M148.6,120.2c0.1,0,0.2,0.2,0.3,0.5c0,0.1,0,0.2,0,0.2
		c0,0,0.3,0.2,0.6,0.3c0.3,0.1,0.8,0.3,1.5,0.5c0.8,0.2,1.4,0.6,1.8,0.6c0.3,0,0.5,0,0.7,0c0,0,0.1,0,0.3-0.3
		c0.2-0.1,0.2-0.1,0.4-0.1c0.2,0.1,0.4,0.4,0.4,0.7c0,0.4-0.1,1-0.3,1.6c-0.2,0.7-0.3,1.3-0.6,1.6c-0.2,0.3-0.6,0.4-0.7,0.4
		c-0.1,0-0.1-0.2-0.1-0.2c-0.1-0.1-0.2-0.3-0.2-0.5c0-0.1-0.1-0.3-0.1-0.4c-0.1,0-0.2-0.1-0.6-0.2c-0.1,0-0.2,0-0.3-0.1
		c-0.2,0-0.3-0.1-0.5,0c0,0-0.1,0.4-0.2,0.7c-0.1,0.3-0.2,0.5-0.3,0.7c0,0.1-0.1,0.3-0.1,0.4c0,0.1,0.1,0.1,0.1,0.1
		c0,0,0.2,0.1,0.4,0.2v0c0.2,0,0.5,0.1,0.6,0.1c0.1-0.1,0.3,0,0.5-0.1c0,0,0-0.1,0.1-0.2c0.2-0.1,0.4-0.2,0.6-0.1
		c0.2,0.1,0.2,0.3,0.3,0.6c0,0.4-0.1,1.2-0.3,2c-0.2,0.9-0.5,1.5-0.7,1.7c-0.3,0.4-0.5,0.5-0.8,0.4c-0.2,0-0.4-0.3-0.3-0.7
		c0-0.1-0.1-0.3-0.1-0.3c0-0.1-0.1-0.2-0.5-0.4c-0.2-0.1-0.8-0.3-1.6-0.6c-0.7-0.3-1.4-0.4-1.8-0.5c-0.4-0.1-0.6-0.2-0.7-0.2
		c0,0-0.1,0.2-0.2,0.3c-0.1,0.1-0.4,0.2-0.5,0.1c-0.2-0.1-0.4-0.4-0.5-0.8c0-0.4,0.4-0.9,0.5-1.7c0.2-0.8,0.5-1.3,0.6-1.6
		c0.2-0.4,0.5-0.5,0.7-0.4c0.1,0,0.2,0.1,0.2,0.2c0,0.1,0.1,0.2,0.2,0.4v0c0.1,0.1,0.2,0.2,0.2,0.2c0.1,0,0.2,0.1,0.4,0.2
		c0.2,0.1,0.5,0.2,0.6,0.3c0.2,0.1,0.5,0.1,0.6,0c0.1-0.1,0.2-0.4,0.3-0.7c0.1-0.3,0.2-0.6,0.2-0.8c0-0.2,0-0.4,0-0.5
		c0,0-0.1-0.1-0.1-0.1c-0.1,0-0.1-0.1-0.2-0.1c-0.3-0.1-0.7-0.2-0.9-0.2c-0.2,0-0.4,0-0.5,0c0,0,0,0.1-0.1,0.1
		c-0.2,0.2-0.5,0.3-0.7,0.3c-0.2-0.1-0.3-0.3-0.3-0.8c0-0.3,0.2-1,0.4-1.7c0.2-0.7,0.5-1.1,0.6-1.4
		C148.1,120.2,148.4,120.2,148.6,120.2L148.6,120.2z M128.5,149.9c0.5-0.5,1.1-0.9,1.5-1.3c0.5-0.4,0.9-0.8,1.4-1.1
		c0.1-0.1,0.2-0.1,0.4-0.1c0.1,0,0.2-0.1,0.4,0c0.1,0.1,0.1,0.3,0,0.5c0,0,0,0.2,0,0.2c0,0.1,0.1,0.3,0.1,0.3c0.1,0.2,0.4,0.5,0.8,1
		c0.2,0.2,0.4,0.5,0.6,0.6c0.5,0.5,0.9,0.8,1.1,1c0.2,0.1,0.3,0.2,0.4,0.2c0,0,0.1,0,0.2-0.1c0.1,0,0.1-0.1,0.2-0.1
		c0.1,0,0.2,0,0.3,0c0,0,0.1,0.1,0.2,0.2c0.2,0.2,0.2,0.5,0,0.9c-0.2,0.4-0.6,1-1.2,1.7c-0.6,0.8-1.2,1.3-1.7,1.6
		c-0.3,0.2-0.7,0.1-0.9-0.1c-0.1-0.1-0.1-0.5,0-0.8c0-0.1,0-0.2,0-0.2c0.1-0.2,0.1-0.3,0.1-0.3s0-0.1-0.1-0.2c0-0.1-0.1-0.4-0.4-0.6
		c-0.2-0.2-0.5-0.7-0.9-1.1c-0.1-0.1-0.3-0.4-0.4-0.6c-0.2-0.3-0.5-0.5-0.5-0.7c-0.1-0.1-0.2-0.2-0.2-0.3c-0.1,0-0.2,0-0.3,0
		c-0.1,0.1-0.3,0.2-0.5,0.3c-0.3,0.3-0.6,0.6-0.7,0.8c-0.2,0.2-0.1,0.6-0.1,0.8c0,0.1-0.1,0.2-0.1,0.3c0.1,0.4,0,0.7-0.2,0.8
		c-0.2,0.2-0.4,0.3-0.7,0.3c-0.3,0-0.4-0.1-0.5-0.3c-0.1-0.1-0.2-0.5-0.2-0.8c0-0.3,0-0.6,0.1-0.9c0-0.1,0.1-0.3,0.2-0.5
		c0.1-0.1,0.1-0.2,0.2-0.3c0,0,0.1,0,0.2,0C127.8,150.5,128,150.2,128.5,149.9L128.5,149.9L128.5,149.9z M89.1,146.3l2.7,2.9
		c0.3,0.3,0.5,0.5,0.5,0.7c0,0.2-0.1,0.3-0.2,0.3c-0.1,0.1-0.4,0.2-0.7,0.1c-0.1-0.1-0.3-0.1-0.3-0.1c-0.2,0-0.5,0-0.9,0.4
		c-0.5,0.2-1.1,0.6-2,1.5c-0.5,0.4-0.9,0.8-1.2,1.1c-0.2,0.1-0.4,0.4-0.4,0.5c0,0,0.1,0.1,0.2,0.3c0,0.3-0.1,0.4-0.3,0.6
		c-0.1,0.1-0.3,0.2-0.5,0.1c-0.2,0-0.5-0.1-0.6-0.3c0,0-0.3-0.3-0.8-0.8c-0.4-0.6-0.8-1.1-1.2-1.5c-0.6-0.6-1.3-1.2-1.9-1.7
		c-0.1,0-0.2-0.1-0.2-0.1c-0.2-0.1-0.2-0.5,0-0.8c0.1-0.3,0.4-0.6,0.8-0.9c0.2-0.2,0.4-0.4,0.6-0.4c0.2,0,0.4,0,0.6,0.2
		c0,0.2,0.1,0.4,0,0.7c0,0.2,0,0.2-0.1,0.3c0,0.1,0.1,0.4,0,0.6c0.2,0.1,0.3,0.5,0.6,0.8c0.3,0.2,0.6,0.3,0.7,0.5
		c0,0.1,0,0.1,0.2,0.1c0,0,0.1-0.1,0.2-0.2c0.4,0,0.6-0.2,0.8-0.4c0.3-0.3,0.5-0.4,0.5-0.6c0,0-0.2-0.1-0.3-0.2
		c-0.2-0.2-0.3-0.3-0.3-0.3c-0.2,0-0.2,0-0.5,0.1c0,0,0,0-0.1,0.1c-0.2,0.3-0.7,0.2-0.8,0c-0.1-0.1-0.2-0.3-0.1-0.6
		c0.1-0.2,0.4-0.5,0.8-0.8c0.5-0.4,1-0.8,1.4-0.9c0.3-0.1,0.6,0,0.7,0.2c0.2,0.2,0.2,0.4-0.1,0.6l0,0c-0.2,0.1-0.2,0.4-0.3,0.5
		c0.1,0.1,0.1,0.2,0.2,0.3c0.2,0.2,0.4,0.3,0.5,0.3c0.1,0,0.3-0.2,0.5-0.4c0.5-0.3,0.7-0.5,0.7-0.6c0.2-0.1,0.2-0.1,0.2-0.3
		c0,0,0-0.2-0.1-0.3c-0.1-0.1-0.3-0.3-0.5-0.5c-0.3-0.3-0.5-0.6-0.8-0.7c-0.3-0.1-0.6-0.2-0.9-0.1c-0.1-0.1-0.2,0.1-0.4,0
		c-0.4,0-0.6,0-0.7-0.1c-0.2-0.2-0.3-0.3-0.3-0.5c0-0.2,0.2-0.3,0.4-0.4c0.2-0.2,0.4-0.4,0.7-0.5c0.2-0.2,0.5-0.2,0.8-0.3
		c0.3-0.1,0.6-0.2,0.7-0.1c0.1,0,0.2,0,0.3,0.1l0.1,0.1C88.2,145.3,88.6,145.7,89.1,146.3L89.1,146.3z M84.4,139.9l2.1,3.2
		c0.1,0.1,0.1,0.3,0.1,0.5c-0.1,0.1-0.1,0.3-0.4,0.4c-0.2,0.1-0.4,0.1-0.7,0c-0.1,0-0.2-0.1-0.2-0.1c-0.1,0-0.4,0-0.6,0.1
		c-0.2,0.1-0.7,0.3-1.4,0.8l-0.8,0.5c-0.7,0.4-1.2,0.7-1.4,0.9c-0.1,0.2-0.3,0.2-0.3,0.4c0,0,0,0.1,0,0.2c0,0.1,0,0.2,0,0.2
		c0,0.1,0,0.1,0,0.2c-0.1,0.1-0.1,0.1-0.2,0.1c-0.2,0.2-0.5,0.1-0.9-0.1c-0.3-0.2-0.8-0.7-1.2-1.3c-0.4-0.6-0.6-1.2-0.8-1.5
		c0-0.3,0-0.6,0.3-0.8c0.2-0.2,0.4-0.2,0.7,0c0.1,0,0.1,0,0.1,0.1c0.1,0,0.2,0,0.2,0c0.1,0,0.1,0,0.3-0.1c0.1-0.1,0.3-0.2,0.6-0.3
		c0.3-0.1,0.7-0.4,1.3-0.8l0.7-0.4c0.5-0.3,0.7-0.5,0.9-0.6c0.2-0.1,0.4-0.2,0.4-0.3c0.1-0.1,0.1-0.2,0.1-0.3c0-0.1-0.1-0.3-0.2-0.5
		c-0.2-0.3-0.5-0.5-0.7-0.6c-0.2-0.1-0.5-0.1-0.7,0c0,0-0.2,0-0.3,0c-0.4,0.1-0.6,0-0.7-0.2c-0.2-0.1-0.2-0.4-0.1-0.6
		c0-0.2,0.2-0.4,0.4-0.6c0.2-0.2,0.6-0.3,0.8-0.3c0.4-0.1,0.7-0.1,1-0.1c0.2,0,0.4,0,0.5,0c0.1,0.1,0.2,0.1,0.4,0.3c0,0,0,0,0,0.1
		C83.9,139,84.1,139.4,84.4,139.9L84.4,139.9L84.4,139.9z M113.2,89.6c0.1,0.4,3.3,0.8,3.5,0.2l0.1-1.3l-0.3-0.5
		c0.3,0,2,0.1,2.6-0.3l0.2-1.3c-2.1-1-5.3-2.4-7.4-4.2c-2.8-0.8-6.6-0.5-6.4,1.8c-0.1,1.2,10.9,1.5,7.9,3.2L113.2,89.6L113.2,89.6z
		 M123.3,86.7c-1.2,0-2.6,0.3-3.4,1.8c-0.2,0.5-0.3,1.8,1,1.3c1.4-0.5,4.2,0,5.6-0.4C126.5,87.1,126.5,86.6,123.3,86.7L123.3,86.7z
		 M129.9,88c-0.8,0-1.6,0.5-2,0.5l0,1.2c0.5,0,2.1,0,2.9,0C131,89.7,130.6,87.9,129.9,88L129.9,88z M178.7,102.1
		c0.7-3.4,3.2-12.1,2.5-14.9c-0.2-1-1.5-0.6-2.2,0.1c0.3,4.2-1.6,11.8-3.2,14c1.7-4.5,2.3-9.3,2.5-14.2c-0.6-0.3-2.3-0.3-2.3,0.2
		c-0.2,6.1-3.4,19.3-6.8,24.1C174,112,176.9,107.7,178.7,102.1L178.7,102.1z M184.7,107.1c1.6-4,3.2-11.3,3.8-20
		c-0.5-1.5-3-1.2-3.5,0.4c0.3,5.7-0.4,11.9-1.9,14.8c1.1-6.1,0.6-10.7,0.6-15.5c-0.5-0.4-1.6,0.1-1.9,0.6c0.7,7.8-2.7,26-7.4,32.8
		C176.4,121.6,182.9,114.4,184.7,107.1L184.7,107.1z M192.6,109.3c1.6-3.6,1.9-12.1,2.5-20.8c-0.5-2.3-2.7-2.3-3.2,0.2
		c1.3,5-1,10.4-1.5,19.6c-1-9.6,2-13.3,0.8-19.8c-0.7-2-2.1-1.7-2.2,0.3c0.2,2.1-0.4,6.4-1.6,9.3c0.2,3.2,0.1,8.5-1.4,11.1
		c1.2,5.1-1.6,13.5-3.6,16.5C183.8,130.6,191.5,115.6,192.6,109.3L192.6,109.3z M200.3,118.5c1.6-3.7,1.5-19.4,1.5-28
		c-0.6-3.1-2.9-3.5-3.2,0.1c0.2,10.4-0.2,30-1.5,28c0.5-5.4,1.2-20.4,0.8-28.1c0.1-3.1-2.8-2.8-2.1,0.3c-0.3,2-0.5,8.5-0.6,11.8
		c-2.8,9.3-1.3,11.4-2,14.4c1.2,5.1,0.5,14.7-0.2,18.7C195.1,140.4,199.7,124.7,200.3,118.5L200.3,118.5z M164.5,94.6
		c-3.2,6.3-7.8,17-4,25.4c1.6,2.5,4.1,2.9,6,3.1c2.6-0.7,5.2-2.1,4.6-6.2c0.3-0.6-2.3-3-3.4-2.4c-1,0-2.6,0.8-3.2,2.4
		c-4.5-9.4,10.1-23.1,6.4-44.1c-1.2-6-7.3-12.3-10.8-12.3L160,64C166.5,66.9,171.9,78.4,164.5,94.6L164.5,94.6z M187.8,83.1
		c0.2-3.1,0.5-7.4,0.1-9.8c-0.7-1.1-1.5-0.6-2.1,0.4c0,2.4-0.2,5.5-0.6,7.1c-0.4-1.6-0.6-5.5-0.2-7.1c-0.4-1.4-1.1-1.4-2,0
		c0,0.8-0.3,4.2-0.3,5.8c0,1.6,0,2.9,0,3.7C182.9,85.9,187.7,85.3,187.8,83.1L187.8,83.1z M194.6,80.9c0.1-2.4,0-5.7,0-8.1
		c-0.4-1-2.4-0.2-2.6,0.3c-0.6,2,0.2,7.4-0.9,7.8c-0.8,0.1-0.2-5.6-0.3-8.1c-0.9-0.6-2.2-0.2-2.2,0.9c0,1.8-0.2,4.3,0,8.8
		C189.5,88.7,195.1,84.8,194.6,80.9L194.6,80.9z M195.3,80.7c-0.8,8.3,7.4,6.5,6.3,0.6c0-2.7,0-6.1,0.1-9.3c-0.6-1-1.4-1-2.1-0.1
		c0,1.6,0.1,7.5,0.1,8.3c-0.1,2.9-2.2,2.9-2.2-0.1c0.2-5.4-0.2-4,0-8c-0.6-0.9-1.8-0.6-1.8,0C195.5,73.6,195.4,77.8,195.3,80.7
		L195.3,80.7z M182.8,73.8c-0.8-0.4-2.2-0.2-2.4,0.9c-0.1,0.9-0.2,1.9-0.5,3.3c-0.4-0.8-0.6-2.3-0.6-3.9c-0.8-0.6-1.5-0.5-2.2,0.2
		c0,1.5,0.1,4.1,0.1,5.5c0.3,6.6,5,4.7,5,0.3C182.2,78.6,182.6,75.7,182.8,73.8L182.8,73.8z M176.3,81.3c0-1.1,0.2-5.4,0.2-7
		c-0.4,0-1.8-0.5-2.2,0.7c-0.3,1.1,0.3,3.7-0.1,4.5c-0.8-1.6-0.3-4.5-1.1-4.5c-0.1-0.5-0.9-0.1-0.9,1.3c0,1.9,0.2,4.9,0.4,6.3
		C173.3,84.4,175.7,84,176.3,81.3L176.3,81.3z M210.8,87.9c-2.3,0.5-3.8,1.5-3.8,3.2c1.8,11.9-0.6,25.1-3.9,35.3
		c-0.4-3.4,3.4-22.4,2.3-32.1c1-3.4-0.6-6.1-2.5-5.7c1.1,13.5-1,30.9-1.9,41.6c-0.2,3.6-3.5,17.8-4.4,21.3c3.1,0.2,7.7-11.1,10-22.7
		c3.7-10.1,4.8-21.2,4.7-24.2C212.1,103.3,211.8,87.8,210.8,87.9L210.8,87.9z M206.5,88.5c2.2,0.2,3.7-1.5,4-2.2
		c0.8-3.9,0.6-11.3,0.6-16c-0.9-0.4-2.5-0.1-2.8,2.2c0.6,4.9,0.6,9.4,0,11.1c-0.4,1.2-2.5,0.7-2.7-0.4c-0.4-1.3-0.7-5.1-0.5-11.1
		c-0.9-1.2-1.9-1.3-2.6-0.4C201,85.5,201.9,87.4,206.5,88.5L206.5,88.5z M205.8,72.9c0.6-0.4,1-0.6,1.6-0.1c0.2,3.3,0.1,6.7-0.2,9.9
		c-0.3,1.4-1.2-0.1-1.1-0.7C205.8,78.9,205.8,75.9,205.8,72.9L205.8,72.9z M197.9,73.1c0.3-0.3,0.6-0.5,1.1-0.1
		c0.1,2.6,0,5.2-0.2,7.7c-0.2,1.1-0.8-0.1-0.7-0.6C197.8,77.8,197.9,75.5,197.9,73.1L197.9,73.1z M47.6,101.1
		c-0.8-3.5-3.2-12.6-2.4-15.4c0.2-1.1,1.2-0.7,2,0.1c-0.5,4.3-0.2,9.2,1.4,11.4c-1.8-4.6-0.4-7.3-0.4-12.4c0.6-0.3,2-0.3,2,0.2
		c-0.5,6.7,0.9,22.7,4.6,27.6C49.7,113.2,49.4,106.7,47.6,101.1L47.6,101.1z M40.8,109.1c-1.8-3.9-1.4-12.9-2.3-21.7
		c0.3-1.8,2-1.3,2.6,0.3c-0.2,5.8,0.2,13,1.9,15.9c-1.3-6.3-0.7-11-0.8-15.8c-0.8-0.4,0.2-3.4,2.2-1.6c0.1,4.8,0.9,12.3,1.1,16.3
		c3.7,4,2,15.8,3.6,18.1C47.3,122.1,43.1,116.3,40.8,109.1L40.8,109.1z M17.8,88.1c-2.2,0.1-3.5-4-3.9-4.6
		c-0.3-4.3,0.3-13.4,0.7-18.4c0.8-0.4,2.7-1.9,2.9,0.3C16.4,70.6,16,79.6,16,81.1c0,5.4,3.5,4.9,3.6-0.4c-0.1-1,1.3-6.8,1.5-13.1
		c1.1-1.3,1.3,0.1,1.9,1.2C21.5,87,21.9,89,17.8,88.1L17.8,88.1z M28.3,68c-0.2,0-0.7-0.3-1-0.3c-0.5,4.6-0.9,9.2-1.1,13.6
		c0.1,2,0.9-0.1,0.8-0.8C27.7,76.3,28,72.1,28.3,68L28.3,68z M20,66.6c-0.6-0.6-1.1-0.9-1.6-0.2c-0.3,5-1.4,10.5-1,15.2
		c0.4,2.1,1.1-1.2,1-2.1C18.7,75,20,71.1,20,66.6L20,66.6z M17.7,44c0.7,2.1,0.3,4.6-1.5,4.7C14.5,42.5,17.7,40.1,17.7,44L17.7,44z
		 M19.9,62.5c0.6,0,2-3.4,2.3-3.3c0.3,0.2-2.3,7.6,1.5,4.1c0.2-0.7,0.6-2.4,0.6-3.2c0.9-4.9-4.6-6.7-6.7-2.6
		c-0.4,0.8-2.1,4.2-0.2,4.7c0.6,0,2.2-3.8,2.5-3.9C21.2,58.3,18.7,61.8,19.9,62.5L19.9,62.5z M32.2,62.4c0.8-3.5-4.7-5.7-6.1-1
		c-0.9,2.5-0.9,3.4,0.2,3.7c0.8,0,1.6-2.8,2-2.8c-0.5,1.9-0.3,3.1,0.2,3.3c0.9,0.3,1.2-2.8,1.5-3l-0.2,3.6c0.8,0.5,1.4,0,1.9,0
		C31.9,64.9,32.3,63.4,32.2,62.4L32.2,62.4z M32.7,64.1c0,2.1-0.4,4.2,1.6,3.7l0.4-1.6l0.4,1.6c0.3,0.3,0.7,0.3,1,0
		c0.2-0.1,0.5-2,0.8-2.1c0.5-0.1,0.4,1.9,0.6,1.9c1.8,0,1.6-1.6,1.6-3.7C39,60.5,34.5,57.6,32.7,64.1L32.7,64.1z M45,66.3
		c0.1,1.8-0.8,4.3-1.3,3.2l-0.2-2.2l-0.5,1.9c-0.2,0.3-0.9,0-1.2-0.1c0,0-0.1-1.8-0.3-1.8c-0.4-0.1-0.5,1.8-0.7,1.8
		c-1.5,0-1.2-1.1-1.4-2.8C39.4,62.4,45.7,61,45,66.3L45,66.3z M45.4,66.9c-0.2,1.5-0.6,3,0.8,3l0.5-1.2l0.1,1.2
		c0.2,0.3,0.5,0.3,0.7,0.1c0.1-0.1,0.6-1.4,0.8-1.4c0.4,0,0.1,1.5,0.3,1.5c1.3,0.2,1.3-1.1,1.6-2.6C50.3,65,47.3,62.3,45.4,66.9
		L45.4,66.9z M56.2,69.1c0,1.4,0.4,2.7-1.4,2.3l-0.4-0.9l-0.4,0.9c-0.2,0.2-0.6,0.2-0.8,0c-0.2,0-0.6-1.3-0.8-1.3
		c-0.5-0.1-0.4,1.2-0.6,1.2c-1.6,0-1.5-1-1.5-2.4C50.6,66.9,54.6,65,56.2,69.1L56.2,69.1z M30,79c-0.1,13-8.3,10.2-6.5,0
		c0.4-3,0.9-8.1,1.1-11.5c0.8-1.1,1.2-0.5,2,0.8c-0.1,1.6-0.9,12.4-1,13.2c-0.2,3.2,1.9,3.6,2.2,0.6c0-5.7,0.8-8.6,1.2-12.9
		c0.5-0.9,1.7-0.2,1.7,0.5C30.7,71,30.2,76.1,30,79L30,79z M30.6,79.5c0.2-2.5,0.5-6.8,0.7-9.3c0.7-1.1,1.5-1.1,2,0.2
		c-0.3,2.6-1.2,11.2,0,11.6c1.4,1.6,2-9.1,2.4-11.6c0.8-0.6,1.9-0.2,1.9,0.9c-0.2,2-0.5,5.9-0.8,10.4C34.5,90.8,29.5,85.1,30.6,79.5
		L30.6,79.5z M37.8,81.8c-0.1-3.2,0.1-7.8,0.7-10.2c0.8-1,0.7-0.8,1.3,0.3c-0.3,2.4-1.2,9.6,0.2,9.2c1.6,0.8,2.8-6.9,2.3-8.7
		c0.6-1.3,0.9-1.4,2,0.1c0,0.8-0.3,4.1-0.2,5.6c-0.5,1.8-0.5,3.2-0.5,4C42.7,85.6,36.5,85.5,37.8,81.8L37.8,81.8z M44.8,73.3
		c0.6-0.3,1.9-1,1.8,0.1c0,0.8-0.6,7,0.8,7.7c1.8-0.9,0.8-6.3,1.2-8c0.8-0.4,1.1-0.3,1.8,0.5c0.1,1.8,0,4.8-0.2,6.3
		c-0.8,6.5-5.9,3.4-5.9-1C44.3,77.7,44.7,75.3,44.8,73.3L44.8,73.3z M51.1,81.5c0-1.2-0.3-5.8-0.1-7.6c0.3,0,1.3-0.5,1.4,0.3
		c0.2,1.1-0.2,3.9,0.3,4.7c1.6-0.2,0.6-4.7,1.4-4.6c0.1-0.4,1,0.1,1.1,1.4c-0.1,2-0.2,4.2-0.5,5.6C54,82.2,51.6,83.6,51.1,81.5
		L51.1,81.5z M13.4,90.2c2.2,0.8,3.5,1.8,3.2,3.4c-2,12.5,1.1,30.4,3.5,36.2c0.6-3.6-3.5-27.6-1.4-37.7c1.3-1.9,1.7-1.5,3.7-1.1
		c-3.1,14.7,4.3,31.7,1.5,39.3c0.5,3.2,2.3,16.3,1.7,20c-2.5,0-6.3-9.8-9.1-22.2c-3-10.9-3.5-19.7-3.2-22.9
		C12.7,104,12.6,89.9,13.4,90.2L13.4,90.2z M26.2,119.4c-2-3.7-1.8-19.2-2.7-28.1c0.3-3.1,2.9-3.8,3.5-0.3c0.8,10.6,2.3,35.2,3.5,33
		c-0.9-5.6-2-25.3-2.5-33.2c-0.5-3.1,3.5-3.1,3,0.1c0.5,2,1.1,12.9-0.3,15.3c3.9,9.1,0.7,9.9,1.7,12.8c2.9,6,0.4,10.6,1.4,14.4
		C32.4,138.6,27.4,125.6,26.2,119.4L26.2,119.4z M33.8,110.6c-2-3.5-0.4-12.5-2-21.2c0.4-1.5,1.8-1.9,2.4-0.2
		c-0.9,5.2,0,9.8,1.5,19.2c0-9.8-1.2-12.7-0.6-19.3c0.6-2.1,2.1-1.9,2.4,0c0.1,2.1-0.5,5.8,0.9,8.6c0,2.7-0.8,7.1,1.1,13.7
		c1.8,5.3,0.8,10.1,1.8,13.2C36,121.9,35.6,117,33.8,110.6L33.8,110.6z M55,89.2c0.3,3.4,0.2,9.8,0.6,14.2c-2.4,0.3-2.9-8.8-3.9-8.8
		c-0.5-3.3-1.5-6.8-0.5-10.1c0.6,0,0.4,2.5,1.3,4.2C52.6,84.3,54.2,81.8,55,89.2L55,89.2z M208.1,42.4c0.8-0.3,1.6,0,2.7,0.5
		c0,1.6-1.1,3-1.5,4.5C208.5,46.7,208.1,45.1,208.1,42.4L208.1,42.4z M173.3,69.2c-0.1-0.4-1.9-0.2-1.9,0c0,2.4,0.6,5.5,4.4,3.9
		c1.3-0.8,0.6-4,0.3-4.7c0.3-0.4-1.5,0-1.8,0.4C174.9,69.2,173.6,71.9,173.3,69.2L173.3,69.2z M178.7,67.6c-0.2-0.5-1.9,0-1.9,0.5
		c0.1,2.8,0.7,6.1,4.7,4.1c1.2-1,0.6-4.7,0.3-5.5c0.3-0.5-1.6,0-1.8,0.5C180.7,69.1,179.2,72.2,178.7,67.6L178.7,67.6z M184.4,66.1
		c-0.1-0.7-1.6,0-1.6,0.5c0,3.2,0.6,6.8,4.1,4.6c1.1-1.2,0.5-5.3,0.3-6.2c0.3-0.4-1.4-0.1-1.6,0.5C186.2,67.8,184.8,71.2,184.4,66.1
		L184.4,66.1z M189.7,63.6c0-0.5-1.6,0.2-1.6,0.7c-0.1,4.2,0.1,9,4.9,6.1c1.4-1.6,0.4-7.5,0.1-8.7c0.4-0.6-1.4,0.4-1.8,1.2
		C192.1,66.2,190.2,71.1,189.7,63.6L189.7,63.6z M196.3,60.2c-0.1-0.8-2.6-0.2-2.4,0.9c0.5,6.4,0.5,12.4,6.9,8.2
		c1.7-1.9,0.5-9.9,0.5-12.1c0.6-0.9-2.2,0.5-2.7,1.7C199.9,63.9,197.2,71.3,196.3,60.2L196.3,60.2z M204.3,56.2c0,0-2,0.3-2,1
		c0,6.5-0.2,15.5,7.6,10.7c1.7-2,0.4-9.6,0.4-11.7c0.7-0.8-2-2.3-2.5-1.1C209,65,205.2,73.5,204.3,56.2L204.3,56.2z M63.1,89.2
		c-0.1-6.5-1.4-6.1-2.8-4.9c0.2,1.6-0.1,5.7,0.5,5.7C62,90,61.8,89.2,63.1,89.2L63.1,89.2z M163.3,88.5c-0.1-6.5-1.4-6.1-2.9-4.9
		c0.2,1.6-0.1,5.7,0.5,5.7C162.2,89.2,161.9,88.5,163.3,88.5L163.3,88.5z M166.7,83.4c-2-1.4-1.4-0.8-3,0c0.2,1.6,0.6,5.2,1.3,5.2
		C166.1,87.9,166.2,84.8,166.7,83.4L166.7,83.4z M163.2,79.2c0-8.2-5-5.2-2.4,2.8c2,1.1,4.8,0.1,6-0.7c1.2-7.9-3.5-10.5-2.2-2.5
		C164.7,79.5,163.2,78.3,163.2,79.2L163.2,79.2z M160.3,66.5c-0.1,2.3-0.6,4.8,0.5,6.1c1.6-1.2,2.3-1.3,3.9-1.5
		C165,69.6,161.3,66.1,160.3,66.5L160.3,66.5z M160.5,92.7l-0.2-2c1.3-0.9,2.7-1.3,4.1-0.9c0,0.6,0.1,1.3,0.1,1.8
		C163.4,92.5,162,92.8,160.5,92.7L160.5,92.7z M171.1,91.8c0,3.1-0.8,7.8-0.8,11.8c2.2,0,2.8-7.1,3.6-7.1c0.2-3,1.6-5.7,0.4-8.6
		c-0.6,0-0.9,1.8-1.6,3.3C172.1,87.8,171.1,87.8,171.1,91.8L171.1,91.8z M48.1,129c-3-2.8-10.9-3.6-11.7,1.3c0,1.6,4,0.4,4.4,0.4
		c0.9,0.9-5.5,1.4-4.5,4.8c2.4,0.5,17.5-3,9,10.8c8.8,0.3,8.5-8,7.1-13.7c3.5-3.1,11.3-8.3,10.3-9.4c-2.6,1.1-5,1.4-7.4,0.3
		C54.1,124.3,50.1,128,48.1,129L48.1,129z M65.2,133.1h0.8c0.3-4.3-0.7-7.2-3.9-6.3C62,129.9,63.6,133.1,65.2,133.1L65.2,133.1z
		 M141.5,26.3c-0.2,0.7,0,1.4,0.5,2c1.7,1.3,2.8,1.5,2.4,0.7C142.4,28.1,142.6,25.9,141.5,26.3L141.5,26.3z"/>
</g>
</svg>
